<mxfile host="app.diagrams.net" agent="Mozilla/5.0 (Windows NT 10.0; Win64; x64) AppleWebKit/537.36 (KHTML, like Gecko) Chrome/135.0.0.0 Safari/537.36" version="26.2.13">
  <diagram name="Page-1" id="tGZniLlOBdnS9l2TfcLT">
    <mxGraphModel dx="5134" dy="4208" grid="1" gridSize="10" guides="1" tooltips="1" connect="1" arrows="1" fold="1" page="1" pageScale="1" pageWidth="827" pageHeight="1169" background="none" math="0" shadow="1">
      <root>
        <mxCell id="0" />
        <mxCell id="1" parent="0" />
        <mxCell id="s6e1yUUkH1MG8MLtkfFg-5" value="&lt;p style=&quot;margin:0px;margin-top:4px;text-align:center;&quot;&gt;&lt;span&gt;USER&lt;/span&gt;&lt;/p&gt;&lt;hr style=&quot;border-style:solid;&quot; size=&quot;1&quot;&gt;&lt;p style=&quot;margin:0px;margin-left:4px;&quot;&gt;-name: String&lt;/p&gt;&lt;p style=&quot;margin:0px;margin-left:4px;&quot;&gt;-gender: String&lt;/p&gt;&lt;p style=&quot;margin:0px;margin-left:4px;&quot;&gt;-email: String&lt;/p&gt;&lt;p style=&quot;margin:0px;margin-left:4px;&quot;&gt;-phone: Int&lt;/p&gt;&lt;p style=&quot;margin:0px;margin-left:4px;&quot;&gt;-password: String&lt;/p&gt;&lt;hr style=&quot;border-style:solid;&quot; size=&quot;1&quot;&gt;&lt;p style=&quot;margin:0px;margin-left:4px;&quot;&gt;+login():&lt;/p&gt;&lt;p style=&quot;margin:0px;margin-left:4px;&quot;&gt;+verifyLogin()&lt;/p&gt;&lt;p style=&quot;margin:0px;margin-left:4px;&quot;&gt;+createAccount()&lt;/p&gt;&lt;p style=&quot;margin:0px;margin-left:4px;&quot;&gt;+logout()&lt;/p&gt;" style="verticalAlign=top;align=left;overflow=fill;html=1;whiteSpace=wrap;fillColor=#d5e8d4;strokeColor=#82b366;fontStyle=1" parent="1" vertex="1">
          <mxGeometry x="454" y="-167.5" width="240" height="160" as="geometry" />
        </mxCell>
        <mxCell id="s6e1yUUkH1MG8MLtkfFg-6" value="&lt;p style=&quot;margin:0px;margin-top:4px;text-align:center;&quot;&gt;&lt;b&gt;RECRUITER&lt;/b&gt;&lt;/p&gt;&lt;hr size=&quot;1&quot; style=&quot;border-style:solid;&quot;&gt;&lt;p style=&quot;margin: 0px 0px 0px 4px;&quot;&gt;-companyName: String&lt;br&gt;&lt;/p&gt;&lt;p style=&quot;margin: 0px 0px 0px 4px;&quot;&gt;-yearOfEstablishment: Integer&lt;/p&gt;&lt;p style=&quot;margin: 0px 0px 0px 4px;&quot;&gt;-noOfEmployess: Integer&lt;/p&gt;&lt;p style=&quot;margin: 0px 0px 0px 4px;&quot;&gt;-companyAddress: String&lt;/p&gt;&lt;p style=&quot;margin: 0px 0px 0px 4px;&quot;&gt;-industryType: String&lt;/p&gt;&lt;p style=&quot;margin: 0px 0px 0px 4px;&quot;&gt;-business/tradeLicense: Integer&lt;/p&gt;&lt;p style=&quot;margin: 0px 0px 0px 4px;&quot;&gt;-website: String&lt;/p&gt;&lt;p style=&quot;margin: 0px 0px 0px 4px;&quot;&gt;-contactPersonName: String&lt;/p&gt;&lt;p style=&quot;margin: 0px 0px 0px 4px;&quot;&gt;-designation: String&lt;/p&gt;&lt;p style=&quot;margin: 0px 0px 0px 4px;&quot;&gt;-email: String&lt;/p&gt;&lt;p style=&quot;margin: 0px 0px 0px 4px;&quot;&gt;-phone: String&lt;/p&gt;&lt;hr size=&quot;1&quot; style=&quot;border-style:solid;&quot;&gt;&lt;p style=&quot;margin: 0px 0px 0px 4px;&quot;&gt;+postJobs()&lt;/p&gt;&lt;p style=&quot;margin: 0px 0px 0px 4px;&quot;&gt;+managejob()&lt;/p&gt;&lt;p style=&quot;margin: 0px 0px 0px 4px;&quot;&gt;&lt;br&gt;&lt;/p&gt;" style="verticalAlign=top;align=left;overflow=fill;html=1;whiteSpace=wrap;fillColor=#e1d5e7;strokeColor=#9673a6;" parent="1" vertex="1">
          <mxGeometry x="460" y="180" width="206" height="240" as="geometry" />
        </mxCell>
        <mxCell id="MSgrG4DnEws9bKUU-TWq-76" value="" style="edgeStyle=orthogonalEdgeStyle;rounded=0;orthogonalLoop=1;jettySize=auto;html=1;endArrow=none;startFill=0;entryX=0;entryY=0.439;entryDx=0;entryDy=0;entryPerimeter=0;" parent="1" source="s6e1yUUkH1MG8MLtkfFg-7" target="uU_qOZDCl_3sr6Ekki7u-24" edge="1">
          <mxGeometry relative="1" as="geometry">
            <mxPoint x="182" y="718" as="targetPoint" />
            <Array as="points">
              <mxPoint x="-10" y="-200" />
              <mxPoint x="-190" y="-200" />
              <mxPoint x="-190" y="-450" />
            </Array>
          </mxGeometry>
        </mxCell>
        <mxCell id="s6e1yUUkH1MG8MLtkfFg-7" value="&lt;p style=&quot;margin:0px;margin-top:4px;text-align:center;&quot;&gt;&lt;b&gt;CANDIDATE&lt;/b&gt;&lt;/p&gt;&lt;hr size=&quot;1&quot; style=&quot;border-style:solid;&quot;&gt;&lt;p style=&quot;margin: 0px 0px 0px 4px;&quot;&gt;- fullName: String&lt;/p&gt;&lt;p style=&quot;margin: 0px 0px 0px 4px;&quot;&gt;- gender: String&lt;/p&gt;&lt;p style=&quot;margin: 0px 0px 0px 4px;&quot;&gt;- skill: String&lt;/p&gt;&lt;p style=&quot;margin: 0px 0px 0px 4px;&quot;&gt;- email: String&lt;/p&gt;&lt;p style=&quot;margin: 0px 0px 0px 4px;&quot;&gt;- password: String&lt;/p&gt;&lt;p style=&quot;margin: 0px 0px 0px 4px;&quot;&gt;- userType: String&lt;/p&gt;&lt;p style=&quot;margin: 0px 0px 0px 4px;&quot;&gt;- phoneNumber: String&lt;/p&gt;&lt;hr size=&quot;1&quot; style=&quot;border-style:solid;&quot;&gt;&lt;p style=&quot;margin: 0px 0px 0px 4px;&quot;&gt;+ createCandidate(): void&lt;/p&gt;&lt;p style=&quot;margin: 0px 0px 0px 4px;&quot;&gt;+ get/set methods&lt;/p&gt;" style="verticalAlign=top;align=left;overflow=fill;html=1;whiteSpace=wrap;fillColor=#e1d5e7;strokeColor=#9673a6;fillStyle=solid;" parent="1" vertex="1">
          <mxGeometry x="-106" y="112.5" width="160" height="187.5" as="geometry" />
        </mxCell>
        <mxCell id="s6e1yUUkH1MG8MLtkfFg-27" value="&lt;p style=&quot;margin:0px;margin-top:4px;text-align:center;&quot;&gt;&lt;b&gt;Post a New Job&amp;nbsp; Listing&lt;/b&gt;&lt;/p&gt;&lt;hr size=&quot;1&quot; style=&quot;border-style:solid;&quot;&gt;&lt;p style=&quot;margin: 0px 0px 0px 4px;&quot;&gt;-jobTitle: String&lt;/p&gt;&lt;p style=&quot;margin: 0px 0px 0px 4px;&quot;&gt;-jobType: String&lt;/p&gt;&lt;p style=&quot;margin: 0px 0px 0px 4px;&quot;&gt;-department: String&lt;/p&gt;&lt;p style=&quot;margin: 0px 0px 0px 4px;&quot;&gt;-description: String&lt;/p&gt;&lt;p style=&quot;margin: 0px 0px 0px 4px;&quot;&gt;-qualification: String&lt;/p&gt;&lt;p style=&quot;margin: 0px 0px 0px 4px;&quot;&gt;-responsibilities: String&lt;/p&gt;&lt;p style=&quot;margin: 0px 0px 0px 4px;&quot;&gt;-salary: String&lt;/p&gt;&lt;p style=&quot;margin: 0px 0px 0px 4px;&quot;&gt;-deadline: Local Date&lt;/p&gt;&lt;hr size=&quot;1&quot; style=&quot;border-style:solid;&quot;&gt;&lt;p style=&quot;margin:0px;margin-left:4px;&quot;&gt;+publishJob()&lt;/p&gt;&lt;p style=&quot;margin:0px;margin-left:4px;&quot;&gt;+setVisibility()&lt;/p&gt;" style="verticalAlign=top;align=left;overflow=fill;html=1;whiteSpace=wrap;fillColor=#e1d5e7;strokeColor=#9673a6;" parent="1" vertex="1">
          <mxGeometry x="180" y="410" width="160" height="190" as="geometry" />
        </mxCell>
        <mxCell id="s6e1yUUkH1MG8MLtkfFg-28" value="&lt;p style=&quot;margin:0px;margin-top:4px;text-align:center;&quot;&gt;&lt;b&gt;Review Job Application&lt;/b&gt;&lt;/p&gt;&lt;hr size=&quot;1&quot; style=&quot;border-style:solid;&quot;&gt;&lt;p style=&quot;margin:0px;margin-left:4px;&quot;&gt;-ratingSystem: Int&lt;/p&gt;&lt;hr size=&quot;1&quot; style=&quot;border-style:solid;&quot;&gt;&lt;p style=&quot;margin:0px;margin-left:4px;&quot;&gt;+shortlistCandidate()&lt;/p&gt;&lt;p style=&quot;margin:0px;margin-left:4px;&quot;&gt;+rejectApplication()&lt;/p&gt;" style="verticalAlign=top;align=left;overflow=fill;html=1;whiteSpace=wrap;fillColor=#e1d5e7;strokeColor=#9673a6;" parent="1" vertex="1">
          <mxGeometry x="210" y="950" width="160" height="90" as="geometry" />
        </mxCell>
        <mxCell id="s6e1yUUkH1MG8MLtkfFg-29" value="&lt;p style=&quot;margin:0px;margin-top:4px;text-align:center;&quot;&gt;&lt;b&gt;Schedule Interviews&lt;/b&gt;&lt;/p&gt;&lt;hr size=&quot;1&quot; style=&quot;border-style:solid;&quot;&gt;&lt;p style=&quot;margin:0px;margin-left:4px;&quot;&gt;-interviewDate: Local Date&lt;/p&gt;&lt;p style=&quot;margin:0px;margin-left:4px;&quot;&gt;-interviewTime: String&lt;/p&gt;&lt;p style=&quot;margin:0px;margin-left:4px;&quot;&gt;-interviewLocation: String&lt;/p&gt;&lt;p style=&quot;margin:0px;margin-left:4px;&quot;&gt;-tableview: String&lt;/p&gt;&lt;hr size=&quot;1&quot; style=&quot;border-style:solid;&quot;&gt;&lt;p style=&quot;margin:0px;margin-left:4px;&quot;&gt;+sendSchedule&lt;br&gt;&lt;/p&gt;" style="verticalAlign=top;align=left;overflow=fill;html=1;whiteSpace=wrap;fillColor=#e1d5e7;strokeColor=#9673a6;" parent="1" vertex="1">
          <mxGeometry x="-106" y="680" width="160" height="130" as="geometry" />
        </mxCell>
        <mxCell id="s6e1yUUkH1MG8MLtkfFg-30" value="&lt;p style=&quot;margin:0px;margin-top:4px;text-align:center;&quot;&gt;&lt;b&gt;Finalize Candidate Selection&lt;/b&gt;&lt;/p&gt;&lt;hr size=&quot;1&quot; style=&quot;border-style:solid;&quot;&gt;&lt;p style=&quot;margin:0px;margin-left:4px;&quot;&gt;-offerLetter: String&lt;/p&gt;&lt;p style=&quot;margin:0px;margin-left:4px;&quot;&gt;-tabelView: String&lt;/p&gt;&lt;hr size=&quot;1&quot; style=&quot;border-style:solid;&quot;&gt;&lt;p style=&quot;margin:0px;margin-left:4px;&quot;&gt;+sendOffer()&lt;/p&gt;&lt;p style=&quot;margin:0px;margin-left:4px;&quot;&gt;&lt;br&gt;&lt;/p&gt;" style="verticalAlign=top;align=left;overflow=fill;html=1;whiteSpace=wrap;fillColor=#e1d5e7;strokeColor=#9673a6;" parent="1" vertex="1">
          <mxGeometry x="483" y="700" width="160" height="120" as="geometry" />
        </mxCell>
        <mxCell id="s6e1yUUkH1MG8MLtkfFg-31" value="&lt;p style=&quot;margin:0px;margin-top:4px;text-align:center;&quot;&gt;&lt;b&gt;Manage Job List&lt;/b&gt;&lt;/p&gt;&lt;hr size=&quot;1&quot; style=&quot;border-style:solid;&quot;&gt;&lt;p style=&quot;margin:0px;margin-left:4px;&quot;&gt;-jobTitle: String&lt;/p&gt;&lt;p style=&quot;margin:0px;margin-left:4px;&quot;&gt;-jobType: String&lt;/p&gt;&lt;p style=&quot;margin:0px;margin-left:4px;&quot;&gt;-department: String&lt;/p&gt;&lt;p style=&quot;margin:0px;margin-left:4px;&quot;&gt;-description: String&lt;/p&gt;&lt;p style=&quot;margin:0px;margin-left:4px;&quot;&gt;-qualification: String&lt;/p&gt;&lt;p style=&quot;margin:0px;margin-left:4px;&quot;&gt;-responsibilities: String&lt;/p&gt;&lt;p style=&quot;margin:0px;margin-left:4px;&quot;&gt;-salary: String&lt;/p&gt;&lt;p style=&quot;margin:0px;margin-left:4px;&quot;&gt;-deadline: Local Date&lt;/p&gt;&lt;hr size=&quot;1&quot; style=&quot;border-style:solid;&quot;&gt;&lt;p style=&quot;margin:0px;margin-left:4px;&quot;&gt;+filterJobs()&lt;/p&gt;&lt;p style=&quot;margin:0px;margin-left:4px;&quot;&gt;+editJobList()&lt;/p&gt;&lt;p style=&quot;margin:0px;margin-left:4px;&quot;&gt;+addOrRemoveJobs()&lt;/p&gt;" style="verticalAlign=top;align=left;overflow=fill;html=1;whiteSpace=wrap;fillColor=#e1d5e7;strokeColor=#9673a6;" parent="1" vertex="1">
          <mxGeometry x="710" y="447.5" width="176" height="212.5" as="geometry" />
        </mxCell>
        <mxCell id="s6e1yUUkH1MG8MLtkfFg-34" value="&lt;p style=&quot;margin:0px;margin-top:4px;text-align:center;&quot;&gt;&lt;b&gt;Message&lt;/b&gt;&lt;/p&gt;&lt;hr size=&quot;1&quot; style=&quot;border-style:solid;&quot;&gt;&lt;p style=&quot;margin:0px;margin-left:4px;&quot;&gt;-messageTemplates: String&lt;/p&gt;&lt;p style=&quot;margin:0px;margin-left:4px;&quot;&gt;-phoneNumber: String&lt;/p&gt;&lt;hr size=&quot;1&quot; style=&quot;border-style:solid;&quot;&gt;&lt;p style=&quot;margin:0px;margin-left:4px;&quot;&gt;+sendMessage()&lt;/p&gt;" style="verticalAlign=top;align=left;overflow=fill;html=1;whiteSpace=wrap;fillColor=#e1d5e7;strokeColor=#9673a6;" parent="1" vertex="1">
          <mxGeometry x="483" y="550" width="160" height="100" as="geometry" />
        </mxCell>
        <mxCell id="s6e1yUUkH1MG8MLtkfFg-35" value="&lt;p style=&quot;margin:0px;margin-top:4px;text-align:center;&quot;&gt;&lt;b&gt;&amp;nbsp; Reports&lt;/b&gt;&lt;/p&gt;&lt;hr size=&quot;1&quot; style=&quot;border-style:solid;&quot;&gt;&lt;p style=&quot;margin:0px;margin-left:4px;&quot;&gt;-tableView: String&lt;/p&gt;&lt;hr size=&quot;1&quot; style=&quot;border-style:solid;&quot;&gt;&lt;p style=&quot;margin:0px;margin-left:4px;&quot;&gt;+downloadReport()&lt;br&gt;&lt;/p&gt;&lt;p style=&quot;margin:0px;margin-left:4px;&quot;&gt;+showInformation()&lt;/p&gt;" style="verticalAlign=top;align=left;overflow=fill;html=1;whiteSpace=wrap;fillColor=#e1d5e7;strokeColor=#9673a6;" parent="1" vertex="1">
          <mxGeometry x="494" y="900" width="160" height="92.5" as="geometry" />
        </mxCell>
        <mxCell id="s6e1yUUkH1MG8MLtkfFg-36" value="&lt;p style=&quot;margin:0px;margin-top:4px;text-align:center;&quot;&gt;&lt;b&gt;Feedback &amp;amp; Improvement&lt;/b&gt;&lt;/p&gt;&lt;hr size=&quot;1&quot; style=&quot;border-style:solid;&quot;&gt;&lt;p style=&quot;margin:0px;margin-left:4px;&quot;&gt;-feedbackAnalysis: String&lt;/p&gt;&lt;p style=&quot;margin:0px;margin-left:4px;&quot;&gt;-tableView: String&lt;/p&gt;&lt;hr size=&quot;1&quot; style=&quot;border-style:solid;&quot;&gt;&lt;p style=&quot;margin:0px;margin-left:4px;&quot;&gt;+saveFeedback()&lt;/p&gt;&lt;p style=&quot;margin:0px;margin-left:4px;&quot;&gt;+shareFeedback&lt;/p&gt;" style="verticalAlign=top;align=left;overflow=fill;html=1;whiteSpace=wrap;fillColor=#e1d5e7;strokeColor=#9673a6;" parent="1" vertex="1">
          <mxGeometry x="170" y="670" width="160" height="120" as="geometry" />
        </mxCell>
        <mxCell id="s6e1yUUkH1MG8MLtkfFg-38" value="&lt;p style=&quot;margin:0px;margin-top:4px;text-align:center;&quot;&gt;&lt;b&gt;Search for Job Listing&lt;/b&gt;&lt;/p&gt;&lt;hr size=&quot;1&quot; style=&quot;border-style:solid;&quot;&gt;&lt;p style=&quot;margin:0px;margin-left:4px;&quot;&gt;-tableview: String&lt;/p&gt;&lt;p style=&quot;margin:0px;margin-left:4px;&quot;&gt;-status: String&lt;/p&gt;&lt;p style=&quot;margin:0px;margin-left:4px;&quot;&gt;-jobType: String&lt;/p&gt;&lt;p style=&quot;margin:0px;margin-left:4px;&quot;&gt;&lt;br&gt;&lt;/p&gt;&lt;hr size=&quot;1&quot; style=&quot;border-style:solid;&quot;&gt;&lt;p style=&quot;margin:0px;margin-left:4px;&quot;&gt;+saveSearch()&lt;/p&gt;&lt;p style=&quot;margin:0px;margin-left:4px;&quot;&gt;+loadJobsFromFile()&lt;/p&gt;" style="verticalAlign=top;align=left;overflow=fill;html=1;whiteSpace=wrap;fillColor=#e1d5e7;strokeColor=#9673a6;" parent="1" vertex="1">
          <mxGeometry x="-330" y="-95" width="160" height="140" as="geometry" />
        </mxCell>
        <mxCell id="s6e1yUUkH1MG8MLtkfFg-39" value="&lt;p style=&quot;margin:0px;margin-top:4px;text-align:center;&quot;&gt;&lt;b&gt;Apply for a Job&lt;/b&gt;&lt;/p&gt;&lt;hr size=&quot;1&quot; style=&quot;border-style:solid;&quot;&gt;&lt;p style=&quot;margin:0px;margin-left:4px;&quot;&gt;-phoneNumber: String&lt;/p&gt;&lt;hr size=&quot;1&quot; style=&quot;border-style:solid;&quot;&gt;&lt;p style=&quot;margin:0px;margin-left:4px;&quot;&gt;+submitApplication(): String&lt;/p&gt;&lt;p style=&quot;margin:0px;margin-left:4px;&quot;&gt;+attachCoverLetter(): File&lt;/p&gt;" style="verticalAlign=top;align=left;overflow=fill;html=1;whiteSpace=wrap;fillColor=#e1d5e7;strokeColor=#9673a6;" parent="1" vertex="1">
          <mxGeometry x="-660" y="267.5" width="190" height="110" as="geometry" />
        </mxCell>
        <mxCell id="s6e1yUUkH1MG8MLtkfFg-40" value="&lt;p style=&quot;margin:0px;margin-top:4px;text-align:center;&quot;&gt;&lt;b&gt;Track Application List&lt;/b&gt;&lt;/p&gt;&lt;hr size=&quot;1&quot; style=&quot;border-style:solid;&quot;&gt;&lt;p style=&quot;margin:0px;margin-left:4px;&quot;&gt;-jobTitle: String&lt;/p&gt;&lt;p style=&quot;margin:0px;margin-left:4px;&quot;&gt;-salary: String&lt;/p&gt;&lt;p style=&quot;margin:0px;margin-left:4px;&quot;&gt;-status: String&lt;/p&gt;&lt;p style=&quot;margin:0px;margin-left:4px;&quot;&gt;-accepted: String&lt;span style=&quot;background-color: transparent; color: light-dark(rgb(0, 0, 0), rgb(255, 255, 255));&quot;&gt;&amp;nbsp;&lt;/span&gt;&lt;/p&gt;&lt;hr size=&quot;1&quot; style=&quot;border-style:solid;&quot;&gt;&lt;p style=&quot;margin:0px;margin-left:4px;&quot;&gt;+trackApplications():&lt;br&gt;+filterAcceptedJobs():&lt;/p&gt;" style="verticalAlign=top;align=left;overflow=fill;html=1;whiteSpace=wrap;fillColor=#e1d5e7;strokeColor=#9673a6;" parent="1" vertex="1">
          <mxGeometry x="-890" y="260" width="160" height="145" as="geometry" />
        </mxCell>
        <mxCell id="s6e1yUUkH1MG8MLtkfFg-41" value="&lt;p style=&quot;margin:0px;margin-top:4px;text-align:center;&quot;&gt;&lt;b&gt;&amp;nbsp;Interview Invitation&amp;nbsp;&lt;/b&gt;&lt;/p&gt;&lt;hr size=&quot;1&quot; style=&quot;border-style:solid;&quot;&gt;&lt;p style=&quot;margin:0px;margin-left:4px;&quot;&gt;-tableview: String&lt;/p&gt;&lt;hr size=&quot;1&quot; style=&quot;border-style:solid;&quot;&gt;&lt;p style=&quot;margin:0px;margin-left:4px;&quot;&gt;+accept()&lt;/p&gt;&lt;p style=&quot;margin:0px;margin-left:4px;&quot;&gt;+decline()&lt;/p&gt;" style="verticalAlign=top;align=left;overflow=fill;html=1;whiteSpace=wrap;fillColor=#e1d5e7;strokeColor=#9673a6;" parent="1" vertex="1">
          <mxGeometry x="-645" y="470" width="160" height="90" as="geometry" />
        </mxCell>
        <mxCell id="s6e1yUUkH1MG8MLtkfFg-42" value="&lt;p style=&quot;margin:0px;margin-top:4px;text-align:center;&quot;&gt;&lt;b&gt;Inbox&lt;/b&gt;&lt;/p&gt;&lt;hr size=&quot;1&quot; style=&quot;border-style:solid;&quot;&gt;&lt;p style=&quot;margin:0px;margin-left:4px;&quot;&gt;-message: String&lt;/p&gt;&lt;hr size=&quot;1&quot; style=&quot;border-style:solid;&quot;&gt;&lt;p style=&quot;margin:0px;margin-left:4px;&quot;&gt;+showNotification&lt;br&gt;&lt;/p&gt;" style="verticalAlign=top;align=left;overflow=fill;html=1;whiteSpace=wrap;fillColor=#e1d5e7;strokeColor=#9673a6;" parent="1" vertex="1">
          <mxGeometry x="40" y="-70" width="160" height="90" as="geometry" />
        </mxCell>
        <mxCell id="s6e1yUUkH1MG8MLtkfFg-43" value="&lt;p style=&quot;margin:0px;margin-top:4px;text-align:center;&quot;&gt;&lt;b&gt;&amp;nbsp;Job Offers&amp;nbsp;&lt;/b&gt;&lt;/p&gt;&lt;hr size=&quot;1&quot; style=&quot;border-style:solid;&quot;&gt;&lt;p style=&quot;margin:0px;margin-left:4px;&quot;&gt;-salary: String&lt;/p&gt;&lt;p style=&quot;margin:0px;margin-left:4px;&quot;&gt;-companyName: String&lt;/p&gt;&lt;p style=&quot;margin:0px;margin-left:4px;&quot;&gt;-jobType: String&lt;/p&gt;&lt;p style=&quot;margin:0px;margin-left:4px;&quot;&gt;-jobTitle: String&lt;/p&gt;&lt;hr size=&quot;1&quot; style=&quot;border-style:solid;&quot;&gt;&lt;p style=&quot;margin:0px;margin-left:4px;&quot;&gt;+acceptOffer()&lt;/p&gt;&lt;p style=&quot;margin:0px;margin-left:4px;&quot;&gt;+declineOffer()&lt;/p&gt;&lt;p style=&quot;margin:0px;margin-left:4px;&quot;&gt;&lt;br&gt;&lt;/p&gt;" style="verticalAlign=top;align=left;overflow=fill;html=1;whiteSpace=wrap;fillColor=#e1d5e7;strokeColor=#9673a6;" parent="1" vertex="1">
          <mxGeometry x="-360" y="310" width="160" height="145" as="geometry" />
        </mxCell>
        <mxCell id="s6e1yUUkH1MG8MLtkfFg-44" value="&lt;p style=&quot;margin:0px;margin-top:4px;text-align:center;&quot;&gt;&lt;b&gt;Feedback on Recruitment Process&lt;/b&gt;&lt;/p&gt;&lt;hr size=&quot;1&quot; style=&quot;border-style:solid;&quot;&gt;&lt;p style=&quot;margin:0px;margin-left:4px;&quot;&gt;-phoneNumber : String&lt;/p&gt;&lt;p style=&quot;margin:0px;margin-left:4px;&quot;&gt;-name: String&lt;/p&gt;&lt;p style=&quot;margin:0px;margin-left:4px;&quot;&gt;-email: String&lt;/p&gt;&lt;p style=&quot;margin:0px;margin-left:4px;&quot;&gt;-feedbackType: String&lt;/p&gt;&lt;p style=&quot;margin:0px;margin-left:4px;&quot;&gt;-description: String&lt;/p&gt;&lt;hr size=&quot;1&quot; style=&quot;border-style:solid;&quot;&gt;&lt;p style=&quot;margin:0px;margin-left:4px;&quot;&gt;+submitFeedback()&lt;/p&gt;" style="verticalAlign=top;align=left;overflow=fill;html=1;whiteSpace=wrap;fillColor=#e1d5e7;strokeColor=#9673a6;" parent="1" vertex="1">
          <mxGeometry x="-130" y="410" width="160" height="150" as="geometry" />
        </mxCell>
        <mxCell id="iU-2FlDDVKVuJZLUvYfY-16" value="&lt;p style=&quot;margin:0px;margin-top:4px;text-align:center;&quot;&gt;&lt;b&gt;Candidate Profile&lt;/b&gt;&lt;/p&gt;&lt;hr size=&quot;1&quot; style=&quot;border-style:solid;&quot;&gt;&lt;p style=&quot;margin:0px;margin-left:4px;&quot;&gt;-skills: String&lt;/p&gt;&lt;div&gt;-experience: String&lt;/div&gt;&lt;div&gt;-education: String&lt;br&gt;&lt;/div&gt;&lt;div&gt;&lt;br&gt;&lt;/div&gt;&lt;hr size=&quot;1&quot; style=&quot;border-style:solid;&quot;&gt;&lt;p style=&quot;margin: 0px 0px 0px 4px;&quot;&gt;+uploadResume(): File&lt;/p&gt;&lt;p style=&quot;margin: 0px 0px 0px 4px;&quot;&gt;+updateSkill(): String&lt;/p&gt;" style="verticalAlign=top;align=left;overflow=fill;html=1;whiteSpace=wrap;fillColor=#e1d5e7;strokeColor=#9673a6;" parent="1" vertex="1">
          <mxGeometry x="-400" y="117.5" width="160" height="142.5" as="geometry" />
        </mxCell>
        <mxCell id="iU-2FlDDVKVuJZLUvYfY-24" value="" style="shape=waypoint;sketch=0;size=6;pointerEvents=1;points=[];fillColor=#e1d5e7;resizable=0;rotatable=0;perimeter=centerPerimeter;snapToPoint=1;align=left;verticalAlign=top;strokeColor=#9673a6;" parent="1" vertex="1">
          <mxGeometry x="-400" y="335" width="20" height="20" as="geometry" />
        </mxCell>
        <mxCell id="MSgrG4DnEws9bKUU-TWq-9" value="&lt;p style=&quot;margin:0px;margin-top:4px;text-align:center;&quot;&gt;&lt;span style=&quot;font-weight: 700; text-wrap-mode: nowrap;&quot;&gt;Revenue&lt;/span&gt;&lt;/p&gt;&lt;hr size=&quot;1&quot; style=&quot;border-style:solid;&quot;&gt;&lt;p style=&quot;margin:0px;margin-left:4px;&quot;&gt;&lt;span style=&quot;text-wrap-mode: nowrap;&quot;&gt;+paymentMethod: String&lt;/span&gt;&lt;/p&gt;&lt;p style=&quot;margin:0px;margin-left:4px;&quot;&gt;&lt;span style=&quot;text-wrap-mode: nowrap;&quot;&gt;+startDate: LocalDate&lt;/span&gt;&lt;span style=&quot;text-wrap-mode: nowrap;&quot;&gt;&lt;/span&gt;&lt;/p&gt;&lt;p style=&quot;margin:0px;margin-left:4px;&quot;&gt;&lt;span style=&quot;text-wrap-mode: nowrap;&quot;&gt;+endDate: LocalDate&lt;/span&gt;&lt;span style=&quot;text-wrap-mode: nowrap;&quot;&gt;&lt;/span&gt;&lt;/p&gt;&lt;hr size=&quot;1&quot; style=&quot;border-style:solid;&quot;&gt;&lt;p style=&quot;margin:0px;margin-left:4px;&quot;&gt;+ getRevenue(): void&lt;/p&gt;&lt;p style=&quot;margin:0px;margin-left:4px;&quot;&gt;+ setRevenue(): return String&amp;nbsp;&lt;/p&gt;&lt;p style=&quot;margin:0px;margin-left:4px;&quot;&gt;+ recognizeRevenue(): return String&amp;nbsp;&lt;/p&gt;&lt;p style=&quot;margin:0px;margin-left:4px;&quot;&gt;+ createRevenueReport(): void&amp;nbsp;&lt;/p&gt;" style="verticalAlign=top;align=left;overflow=fill;html=1;whiteSpace=wrap;fillColor=#fad9d5;strokeColor=#ae4132;" parent="1" vertex="1">
          <mxGeometry x="1440" y="-664" width="230" height="160" as="geometry" />
        </mxCell>
        <mxCell id="MSgrG4DnEws9bKUU-TWq-11" value="&lt;p style=&quot;margin:0px;margin-top:4px;text-align:center;&quot;&gt;&lt;b&gt;ACCOUNTANT&lt;/b&gt;&lt;/p&gt;&lt;hr size=&quot;1&quot; style=&quot;border-style:solid;&quot;&gt;&lt;p style=&quot;margin: 0px 0px 0px 4px;&quot;&gt;+ accountantID: int { unique}&lt;br&gt;+ branchName: String&lt;br&gt;+ joiningDate: Date {final}&lt;br&gt;# salary: double&lt;br&gt;&lt;br&gt;&lt;/p&gt;&lt;hr size=&quot;1&quot; style=&quot;border-style:solid;&quot;&gt;&lt;p style=&quot;margin: 0px 0px 0px 4px;&quot;&gt;+ getInfo(): void&lt;br&gt;+ setInfo(): return String&lt;br&gt;+ sendPaymentApprovalRequest: void&lt;br&gt;+ finalizeBudget(): return String&lt;br&gt;+ compareFS(): return String&lt;br&gt;+ submitBudgetReport(): void&lt;br&gt;+ notifyBudgetIssue(): return String&lt;br&gt;&lt;/p&gt;" style="verticalAlign=top;align=left;overflow=fill;html=1;whiteSpace=wrap;fillColor=#fad9d5;strokeColor=#ae4132;" parent="1" vertex="1">
          <mxGeometry x="470" y="-650" width="310" height="250" as="geometry" />
        </mxCell>
        <mxCell id="MSgrG4DnEws9bKUU-TWq-13" value="&lt;p style=&quot;margin:0px;margin-top:4px;text-align:center;&quot;&gt;&lt;b&gt;Financial Budget&lt;/b&gt;&lt;/p&gt;&lt;hr size=&quot;1&quot; style=&quot;border-style:solid;&quot;&gt;&lt;p style=&quot;margin:0px;margin-left:4px;&quot;&gt;+ startingDate: LocalDate&amp;nbsp;&lt;/p&gt;&lt;p style=&quot;margin:0px;margin-left:4px;&quot;&gt;+ endingDate: LocalDate&lt;/p&gt;&lt;hr size=&quot;1&quot; style=&quot;border-style:solid;&quot;&gt;&lt;p style=&quot;margin:0px;margin-left:4px;&quot;&gt;+ downloadPreviousFS(): return String&amp;nbsp;&lt;/p&gt;&lt;p style=&quot;margin:0px;margin-left:4px;&quot;&gt;+ estimateIncomeExpense(): void&amp;nbsp;&lt;/p&gt;&lt;p style=&quot;margin:0px;margin-left:4px;&quot;&gt;+ prepareProformaFS(): void&amp;nbsp;&lt;/p&gt;&lt;p style=&quot;margin:0px;margin-left:4px;&quot;&gt;+ downloadProformaFS(): return String&lt;/p&gt;" style="verticalAlign=top;align=left;overflow=fill;html=1;whiteSpace=wrap;fillColor=#fad9d5;strokeColor=#ae4132;" parent="1" vertex="1">
          <mxGeometry x="1020" y="-890" width="250" height="160" as="geometry" />
        </mxCell>
        <mxCell id="MSgrG4DnEws9bKUU-TWq-20" value="Extends" style="endArrow=block;endSize=16;endFill=0;html=1;rounded=0;edgeStyle=elbowEdgeStyle;entryX=1.001;entryY=0.131;entryDx=0;entryDy=0;entryPerimeter=0;exitX=0;exitY=0.75;exitDx=0;exitDy=0;" parent="1" source="MSgrG4DnEws9bKUU-TWq-13" target="MSgrG4DnEws9bKUU-TWq-11" edge="1">
          <mxGeometry width="160" relative="1" as="geometry">
            <mxPoint x="1030" y="570" as="sourcePoint" />
            <mxPoint x="840" y="595" as="targetPoint" />
          </mxGeometry>
        </mxCell>
        <mxCell id="MSgrG4DnEws9bKUU-TWq-24" value="Extends" style="endArrow=block;endSize=16;endFill=0;html=1;rounded=0;edgeStyle=elbowEdgeStyle;exitX=0.5;exitY=1;exitDx=0;exitDy=0;" parent="1" source="MSgrG4DnEws9bKUU-TWq-11" target="s6e1yUUkH1MG8MLtkfFg-5" edge="1">
          <mxGeometry width="160" relative="1" as="geometry">
            <mxPoint x="660" y="-230" as="sourcePoint" />
            <mxPoint x="560" y="60" as="targetPoint" />
            <Array as="points" />
          </mxGeometry>
        </mxCell>
        <mxCell id="MSgrG4DnEws9bKUU-TWq-79" value="" style="edgeStyle=orthogonalEdgeStyle;rounded=0;orthogonalLoop=1;jettySize=auto;html=1;endArrow=none;startFill=0;" parent="1" source="MSgrG4DnEws9bKUU-TWq-46" target="MSgrG4DnEws9bKUU-TWq-47" edge="1">
          <mxGeometry relative="1" as="geometry" />
        </mxCell>
        <mxCell id="MSgrG4DnEws9bKUU-TWq-46" value="&lt;p style=&quot;margin:0px;margin-top:4px;text-align:center;&quot;&gt;&lt;span style=&quot;font-weight: 700; text-wrap-mode: nowrap;&quot;&gt;TrainingCoordinator&lt;/span&gt;&lt;/p&gt;&lt;hr size=&quot;1&quot; style=&quot;border-style:solid;&quot;&gt;&lt;p style=&quot;margin: 0px 0px 0px 4px;&quot;&gt;&lt;span style=&quot;text-wrap-mode: nowrap;&quot;&gt;+ coordinatorID : int{ unique }&lt;/span&gt;&lt;/p&gt;&lt;p style=&quot;margin: 0px 0px 0px 4px;&quot;&gt;&lt;span style=&quot;text-wrap-mode: nowrap;&quot;&gt;+ name&amp;nbsp;&lt;/span&gt;&lt;span style=&quot;background-color: transparent; color: light-dark(rgb(0, 0, 0), rgb(255, 255, 255));&quot;&gt;: String&lt;/span&gt;&lt;/p&gt;&lt;p style=&quot;margin: 0px 0px 0px 4px;&quot;&gt;&lt;span style=&quot;text-wrap-mode: nowrap;&quot;&gt;+email&amp;nbsp;&lt;/span&gt;&lt;span style=&quot;text-wrap-mode: nowrap;&quot;&gt;&lt;/span&gt;&lt;span style=&quot;background-color: transparent; color: light-dark(rgb(0, 0, 0), rgb(255, 255, 255));&quot;&gt;: String&lt;/span&gt;&lt;/p&gt;&lt;p style=&quot;margin: 0px 0px 0px 4px;&quot;&gt;&lt;span style=&quot;text-wrap-mode: nowrap;&quot;&gt;+ phone&amp;nbsp;&lt;/span&gt;&lt;span style=&quot;text-wrap-mode: nowrap;&quot;&gt;&lt;/span&gt;&lt;span style=&quot;background-color: transparent; color: light-dark(rgb(0, 0, 0), rgb(255, 255, 255));&quot;&gt;: String&lt;/span&gt;&lt;/p&gt;&lt;p style=&quot;margin: 0px 0px 0px 4px;&quot;&gt;&lt;span style=&quot;text-wrap-mode: nowrap;&quot;&gt;+List&amp;lt;TrainingSession&amp;gt; trainingSessionsAssigned&lt;/span&gt;&lt;span style=&quot;text-wrap-mode: nowrap;&quot;&gt;&lt;/span&gt;&lt;/p&gt;&lt;p style=&quot;margin: 0px 0px 0px 4px;&quot;&gt;&lt;span style=&quot;text-wrap-mode: nowrap;&quot;&gt;+List&amp;lt;Recruiter&amp;gt; recruitersAssigned&lt;/span&gt;&lt;br&gt;&lt;span style=&quot;color: rgba(0, 0, 0, 0); font-family: monospace; font-size: 0px; text-wrap-mode: nowrap;&quot;&gt;%3CmxGraphModel%3E%3Croot%3E%3CmxCell%20id%3D%220%22%2F%3E%3CmxCell%20id%3D%221%22%20parent%3D%220%22%2F%3E%3CmxCell%20id%3D%222%22%20value%3D%22%2BString%20coordinatorID%22%20style%3D%22text%3BstrokeColor%3Dnone%3BfillColor%3Dnone%3Balign%3Dleft%3BverticalAlign%3Dtop%3BspacingLeft%3D4%3BspacingRight%3D4%3Boverflow%3Dhidden%3Brotatable%3D0%3Bpoints%3D%5B%5B0%2C0.5%5D%2C%5B1%2C0.5%5D%5D%3BportConstraint%3Deastwest%3B%22%20vertex%3D%221%22%20parent%3D%221%22%3E%3CmxGeometry%20x%3D%22-311.5%22%20y%3D%22888%22%20width%3D%22623%22%20height%3D%2228%22%20as%3D%22geometry%22%2F%3E%3C%2FmxCell%3E%3CmxCell%20id%3D%223%22%20value%3D%22%2BString%20name%22%20style%3D%22text%3BstrokeColor%3Dnone%3BfillColor%3Dnone%3Balign%3Dleft%3BverticalAlign%3Dtop%3BspacingLeft%3D4%3BspacingRight%3D4%3Boverflow%3Dhidden%3Brotatable%3D0%3Bpoints%3D%5B%5B0%2C0.5%5D%2C%5B1%2C0.5%5D%5D%3BportConstraint%3Deastwest%3B%22%20vertex%3D%221%22%20parent%3D%221%22%3E%3CmxGeometry%20x%3D%22-311.5%22%20y%3D%22916%22%20width%3D%22623%22%20height%3D%2228%22%20as%3D%22geometry%22%2F%3E%3C%2FmxCell%3E%3CmxCell%20id%3D%224%22%20value%3D%22%2BString%20email%22%20style%3D%22text%3BstrokeColor%3Dnone%3BfillColor%3Dnone%3Balign%3Dleft%3BverticalAlign%3Dtop%3BspacingLeft%3D4%3BspacingRight%3D4%3Boverflow%3Dhidden%3Brotatable%3D0%3Bpoints%3D%5B%5B0%2C0.5%5D%2C%5B1%2C0.5%5D%5D%3BportConstraint%3Deastwest%3B%22%20vertex%3D%221%22%20parent%3D%221%22%3E%3CmxGeometry%20x%3D%22-311.5%22%20y%3D%22944%22%20width%3D%22623%22%20height%3D%2228%22%20as%3D%22geometry%22%2F%3E%3C%2FmxCell%3E%3CmxCell%20id%3D%225%22%20value%3D%22%2BString%20phone%22%20style%3D%22text%3BstrokeColor%3Dnone%3BfillColor%3Dnone%3Balign%3Dleft%3BverticalAlign%3Dtop%3BspacingLeft%3D4%3BspacingRight%3D4%3Boverflow%3Dhidden%3Brotatable%3D0%3Bpoints%3D%5B%5B0%2C0.5%5D%2C%5B1%2C0.5%5D%5D%3BportConstraint%3Deastwest%3B%22%20vertex%3D%221%22%20parent%3D%221%22%3E%3CmxGeometry%20x%3D%22-311.5%22%20y%3D%22972%22%20width%3D%22623%22%20height%3D%2228%22%20as%3D%22geometry%22%2F%3E%3C%2FmxCell%3E%3CmxCell%20id%3D%226%22%20value%3D%22%2BList%26lt%3BTrainingSession%26gt%3B%20trainingSessionsAssigned%22%20style%3D%22text%3BstrokeColor%3Dnone%3BfillColor%3Dnone%3Balign%3Dleft%3BverticalAlign%3Dtop%3BspacingLeft%3D4%3BspacingRight%3D4%3Boverflow%3Dhidden%3Brotatable%3D0%3Bpoints%3D%5B%5B0%2C0.5%5D%2C%5B1%2C0.5%5D%5D%3BportConstraint%3Deastwest%3B%22%20vertex%3D%221%22%20parent%3D%221%22%3E%3CmxGeometry%20x%3D%22-311.5%22%20y%3D%221000%22%20width%3D%22623%22%20height%3D%2228%22%20as%3D%22geometry%22%2F%3E%3C%2FmxCell%3E%3CmxCell%20id%3D%227%22%20value%3D%22%2BList%26lt%3BRecruiter%26gt%3B%20recruitersAssigned%22%20style%3D%22text%3BstrokeColor%3Dnone%3BfillColor%3Dnone%3Balign%3Dleft%3BverticalAlign%3Dtop%3BspacingLeft%3D4%3BspacingRight%3D4%3Boverflow%3Dhidden%3Brotatable%3D0%3Bpoints%3D%5B%5B0%2C0.5%5D%2C%5B1%2C0.5%5D%5D%3BportConstraint%3Deastwest%3B%22%20vertex%3D%221%22%20parent%3D%221%22%3E%3CmxGeometry%20x%3D%22-311.5%22%20y%3D%221028%22%20width%3D%22623%22%20height%3D%2228%22%20as%3D%22geometry%22%2F%3E%3C%2FmxCell%3E%3C%2Froot%3E%3C%2FmxGraphModel%3E&lt;/span&gt;&lt;span style=&quot;color: rgba(0, 0, 0, 0); font-family: monospace; font-size: 0px; text-wrap-mode: nowrap; background-color: transparent;&quot;&gt;%3CmxGraphModel%3E%3Croot%3E%3CmxCell%20id%3D%220%22%2F%3E%3CmxCell%20id%3D%221%22%20parent%3D%220%22%2F%3E%3CmxCell%20id%3D%222%22%20value%3D%22%2BString%20coordinatorID%22%20style%3D%22text%3BstrokeColor%3Dnone%3BfillColor%3Dnone%3Balign%3Dleft%3BverticalAlign%3Dtop%3BspacingLeft%3D4%3BspacingRight%3D4%3Boverflow%3Dhidden%3Brotatable%3D0%3Bpoints%3D%5B%5B0%2C0.5%5D%2C%5B1%2C0.5%5D%5D%3BportConstraint%3Deastwest%3B%22%20vertex%3D%221%22%20parent%3D%221%22%3E%3CmxGeometry%20x%3D%22-311.5%22%20y%3D%22888%22%20width%3D%22623%22%20height%3D%2228%22%20as%3D%22geometry%22%2F%3E%3C%2FmxCell%3E%3CmxCell%20id%3D%223%22%20value%3D%22%2BString%20name%22%20style%3D%22text%3BstrokeColor%3Dnone%3BfillColor%3Dnone%3Balign%3Dleft%3BverticalAlign%3Dtop%3BspacingLeft%3D4%3BspacingRight%3D4%3Boverflow%3Dhidden%3Brotatable%3D0%3Bpoints%3D%5B%5B0%2C0.5%5D%2C%5B1%2C0.5%5D%5D%3BportConstraint%3Deastwest%3B%22%20vertex%3D%221%22%20parent%3D%221%22%3E%3CmxGeometry%20x%3D%22-311.5%22%20y%3D%22916%22%20width%3D%22623%22%20height%3D%2228%22%20as%3D%22geometry%22%2F%3E%3C%2FmxCell%3E%3CmxCell%20id%3D%224%22%20value%3D%22%2BString%20email%22%20style%3D%22text%3BstrokeColor%3Dnone%3BfillColor%3Dnone%3Balign%3Dleft%3BverticalAlign%3Dtop%3BspacingLeft%3D4%3BspacingRight%3D4%3Boverflow%3Dhidden%3Brotatable%3D0%3Bpoints%3D%5B%5B0%2C0.5%5D%2C%5B1%2C0.5%5D%5D%3BportConstraint%3Deastwest%3B%22%20vertex%3D%221%22%20parent%3D%221%22%3E%3CmxGeometry%20x%3D%22-311.5%22%20y%3D%22944%22%20width%3D%22623%22%20height%3D%2228%22%20as%3D%22geometry%22%2F%3E%3C%2FmxCell%3E%3CmxCell%20id%3D%225%22%20value%3D%22%2BString%20phone%22%20style%3D%22text%3BstrokeColor%3Dnone%3BfillColor%3Dnone%3Balign%3Dleft%3BverticalAlign%3Dtop%3BspacingLeft%3D4%3BspacingRight%3D4%3Boverflow%3Dhidden%3Brotatable%3D0%3Bpoints%3D%5B%5B0%2C0.5%5D%2C%5B1%2C0.5%5D%5D%3BportConstraint%3Deastwest%3B%22%20vertex%3D%221%22%20parent%3D%221%22%3E%3CmxGeometry%20x%3D%22-311.5%22%20y%3D%22972%22%20width%3D%22623%22%20height%3D%2228%22%20as%3D%22geometry%22%2F%3E%3C%2FmxCell%3E%3CmxCell%20id%3D%226%22%20value%3D%22%2BList%26lt%3BTrainingSession%26gt%3B%20trainingSessionsAssigned%22%20style%3D%22text%3BstrokeColor%3Dnone%3BfillColor%3Dnone%3Balign%3Dleft%3BverticalAlign%3Dtop%3BspacingLeft%3D4%3BspacingRight%3D4%3Boverflow%3Dhidden%3Brotatable%3D0%3Bpoints%3D%5B%5B0%2C0.5%5D%2C%5B1%2C0.5%5D%5D%3BportConstraint%3Deastwest%3B%22%20vertex%3D%221%22%20parent%3D%221%22%3E%3CmxGeometry%20x%3D%22-311.5%22%20y%3D%221000%22%20width%3D%22623%22%20height%3D%2228%22%20as%3D%22geometry%22%2F%3E%3C%2FmxCell%3E%3CmxCell%20id%3D%227%22%20value%3D%22%2BList%26lt%3BRecruiter%26gt%3B%20recruitersAssigned%22%20style%3D%22text%3BstrokeColor%3Dnone%3BfillColor%3Dnone%3Balign%3Dleft%3BverticalAlign%3Dtop%3BspacingLeft%3D4%3BspacingRight%3D4%3Boverflow%3Dhidden%3Brotatable%3D0%3Bpoints%3D%5B%5B0%2C0.5%5D%2C%5B1%2C0.5%5D%5D%3BportConstraint%3Deastwest%3B%22%20vertex%3D%221%22%20parent%3D%221%22%3E%3CmxGeometry%20x%3D%22-311.5%22%20y%3D%221028%22%20width%3D%22623%22%20height%3D%2228%22%20as%3D%22geometry%22%2F%3E%3C%2FmxCell%3E%3C%2Froot%3E%3C%2FmxGraphModel%3E&lt;/span&gt;&lt;/p&gt;&lt;hr size=&quot;1&quot; style=&quot;border-style:solid;&quot;&gt;&lt;p style=&quot;margin: 0px 0px 0px 4px;&quot;&gt;&lt;span style=&quot;text-wrap-mode: nowrap;&quot;&gt;+viewAssignedTrainings() : List&amp;lt;TrainingSession&amp;gt;&lt;/span&gt;&lt;/p&gt;&lt;p style=&quot;margin: 0px 0px 0px 4px;&quot;&gt;&lt;span style=&quot;text-wrap-mode: nowrap;&quot;&gt;+createTrainingProgram(program: TrainingProgram) : String&lt;/span&gt;&lt;span style=&quot;text-wrap-mode: nowrap;&quot;&gt;&lt;/span&gt;&lt;/p&gt;&lt;p style=&quot;margin: 0px 0px 0px 4px;&quot;&gt;&lt;span style=&quot;text-wrap-mode: nowrap;&quot;&gt;+createTrainingProgram(program: TrainingProgram) : String&lt;/span&gt;&lt;span style=&quot;text-wrap-mode: nowrap;&quot;&gt;&lt;/span&gt;&lt;/p&gt;&lt;p style=&quot;margin: 0px 0px 0px 4px;&quot;&gt;&lt;span style=&quot;text-wrap-mode: nowrap;&quot;&gt;+trackTrainingCompletion(recruiter: Recruiter, session: TrainingSession) : String&lt;/span&gt;&lt;span style=&quot;text-wrap-mode: nowrap;&quot;&gt;&lt;/span&gt;&lt;/p&gt;&lt;p style=&quot;margin: 0px 0px 0px 4px;&quot;&gt;&lt;span style=&quot;text-wrap-mode: nowrap;&quot;&gt;+evaluateTrainingPerformance(recruiter: Recruiter, session: TrainingSession, feedback: String) : String&lt;/span&gt;&lt;span style=&quot;text-wrap-mode: nowrap;&quot;&gt;&lt;/span&gt;&lt;/p&gt;&lt;p style=&quot;margin: 0px 0px 0px 4px;&quot;&gt;&lt;span style=&quot;text-wrap-mode: nowrap;&quot;&gt;+updateTrainingStatus(recruiter: Recruiter, session: TrainingSession, status: String) : String&lt;/span&gt;&lt;span style=&quot;text-wrap-mode: nowrap;&quot;&gt;&lt;/span&gt;&lt;/p&gt;&lt;p style=&quot;margin: 0px 0px 0px 4px;&quot;&gt;&lt;span style=&quot;text-wrap-mode: nowrap;&quot;&gt;+generateTrainingReport() : : TrainingReport&lt;/span&gt;&lt;/p&gt;&lt;p style=&quot;margin: 0px 0px 0px 4px;&quot;&gt;&lt;span style=&quot;text-wrap-mode: nowrap;&quot;&gt;+sendTrainingFeedback(recruiter: Recruiter, session: TrainingSession, feedback: String) : String&lt;/span&gt;&lt;span style=&quot;text-wrap-mode: nowrap;&quot;&gt;&lt;/span&gt;&lt;/p&gt;&lt;p style=&quot;margin: 0px 0px 0px 4px;&quot;&gt;&lt;span style=&quot;text-wrap-mode: nowrap;&quot;&gt;+contactRecruiterForFollowUp(recruiter: Recruiter, message: String) : String&lt;/span&gt;&lt;span style=&quot;text-wrap-mode: nowrap;&quot;&gt;&lt;/span&gt;&lt;/p&gt;" style="verticalAlign=top;align=left;overflow=fill;html=1;whiteSpace=wrap;fillColor=#ffe6cc;strokeColor=#d79b00;" parent="1" vertex="1">
          <mxGeometry x="1455" y="110" width="575" height="290" as="geometry" />
        </mxCell>
        <mxCell id="MSgrG4DnEws9bKUU-TWq-80" value="" style="edgeStyle=orthogonalEdgeStyle;rounded=0;orthogonalLoop=1;jettySize=auto;html=1;endArrow=none;startFill=0;" parent="1" source="MSgrG4DnEws9bKUU-TWq-47" target="MSgrG4DnEws9bKUU-TWq-72" edge="1">
          <mxGeometry relative="1" as="geometry" />
        </mxCell>
        <mxCell id="MSgrG4DnEws9bKUU-TWq-47" value="&lt;p style=&quot;margin:0px;margin-top:4px;text-align:center;&quot;&gt;&lt;span style=&quot;font-weight: 700; text-wrap-mode: nowrap;&quot;&gt;TrainingSession&lt;/span&gt;&lt;/p&gt;&lt;hr size=&quot;1&quot; style=&quot;border-style:solid;&quot;&gt;&lt;p style=&quot;margin: 0px 0px 0px 4px;&quot;&gt;&lt;span style=&quot;text-wrap-mode: nowrap;&quot;&gt;+sessionID&amp;nbsp;&lt;/span&gt;&lt;span style=&quot;background-color: transparent; color: light-dark(rgb(0, 0, 0), rgb(255, 255, 255));&quot;&gt;:&amp;nbsp;&lt;/span&gt;&lt;span style=&quot;text-wrap-mode: nowrap; background-color: transparent; color: light-dark(rgb(0, 0, 0), rgb(255, 255, 255));&quot;&gt;int{ unique }&lt;/span&gt;&lt;/p&gt;&lt;p style=&quot;margin: 0px 0px 0px 4px;&quot;&gt;&lt;span style=&quot;text-wrap-mode: nowrap; background-color: transparent; color: light-dark(rgb(0, 0, 0), rgb(255, 255, 255));&quot;&gt;+title&amp;nbsp;&lt;/span&gt;&lt;span style=&quot;background-color: transparent; color: light-dark(rgb(0, 0, 0), rgb(255, 255, 255));&quot;&gt;: String&lt;/span&gt;&lt;/p&gt;&lt;p style=&quot;margin: 0px 0px 0px 4px;&quot;&gt;&lt;span style=&quot;text-wrap-mode: nowrap; background-color: transparent; color: light-dark(rgb(0, 0, 0), rgb(255, 255, 255));&quot;&gt;+DateTime schedule&lt;/span&gt;&lt;/p&gt;&lt;p style=&quot;margin: 0px 0px 0px 4px;&quot;&gt;&lt;span style=&quot;text-wrap-mode: nowrap; background-color: transparent; color: light-dark(rgb(0, 0, 0), rgb(255, 255, 255));&quot;&gt;+duration&amp;nbsp;&lt;/span&gt;&lt;span style=&quot;background-color: transparent; color: light-dark(rgb(0, 0, 0), rgb(255, 255, 255));&quot;&gt;: String&lt;/span&gt;&lt;/p&gt;&lt;p style=&quot;margin: 0px 0px 0px 4px;&quot;&gt;&lt;span style=&quot;text-wrap-mode: nowrap; background-color: transparent; color: light-dark(rgb(0, 0, 0), rgb(255, 255, 255));&quot;&gt;+trainer&amp;nbsp;&lt;/span&gt;&lt;span style=&quot;background-color: transparent; color: light-dark(rgb(0, 0, 0), rgb(255, 255, 255));&quot;&gt;: String&lt;/span&gt;&lt;/p&gt;&lt;p style=&quot;margin: 0px 0px 0px 4px;&quot;&gt;&lt;span style=&quot;text-wrap-mode: nowrap; background-color: transparent; color: light-dark(rgb(0, 0, 0), rgb(255, 255, 255));&quot;&gt;+location&amp;nbsp;&lt;/span&gt;&lt;span style=&quot;background-color: transparent; color: light-dark(rgb(0, 0, 0), rgb(255, 255, 255));&quot;&gt;: String&lt;/span&gt;&lt;/p&gt;&lt;p style=&quot;margin: 0px 0px 0px 4px;&quot;&gt;&lt;span style=&quot;text-wrap-mode: nowrap; background-color: transparent; color: light-dark(rgb(0, 0, 0), rgb(255, 255, 255));&quot;&gt;+List&amp;lt;Recruiter&amp;gt; recruitersAssigned&lt;/span&gt;&lt;/p&gt;&lt;p style=&quot;margin: 0px 0px 0px 4px;&quot;&gt;&lt;span style=&quot;text-wrap-mode: nowrap; background-color: transparent; color: light-dark(rgb(0, 0, 0), rgb(255, 255, 255));&quot;&gt;+List&amp;lt;String&amp;gt; trainingMaterials&lt;/span&gt;&lt;/p&gt;&lt;hr size=&quot;1&quot; style=&quot;border-style:solid;&quot;&gt;&lt;p style=&quot;margin: 0px 0px 0px 4px;&quot;&gt;&lt;span style=&quot;text-wrap-mode: nowrap;&quot;&gt;+addRecruiter(recruiter: Recruiter) : String&lt;/span&gt;&lt;/p&gt;&lt;p style=&quot;margin: 0px 0px 0px 4px;&quot;&gt;&lt;span style=&quot;text-wrap-mode: nowrap;&quot;&gt;+removeRecruiter(recruiter: Recruiter) : String&lt;/span&gt;&lt;span style=&quot;text-wrap-mode: nowrap;&quot;&gt;&lt;/span&gt;&lt;/p&gt;&lt;p style=&quot;margin: 0px 0px 0px 4px;&quot;&gt;&lt;span style=&quot;text-wrap-mode: nowrap;&quot;&gt;+updateTrainingSchedule(newSchedule: DateTime) : String&lt;/span&gt;&lt;span style=&quot;text-wrap-mode: nowrap;&quot;&gt;&lt;/span&gt;&lt;/p&gt;&lt;p style=&quot;margin: 0px 0px 0px 4px;&quot;&gt;&lt;span style=&quot;text-wrap-mode: nowrap;&quot;&gt;+addTrainingMaterials(materials: List&amp;lt;String&amp;gt;) : String&lt;/span&gt;&lt;span style=&quot;text-wrap-mode: nowrap;&quot;&gt;&lt;/span&gt;&lt;/p&gt;&lt;p style=&quot;margin: 0px 0px 0px 4px;&quot;&gt;&lt;span style=&quot;text-wrap-mode: nowrap;&quot;&gt;+updateTrainingMaterials(newMaterials: List&amp;lt;String&amp;gt;) : String&lt;/span&gt;&lt;span style=&quot;text-wrap-mode: nowrap;&quot;&gt;&lt;/span&gt;&lt;/p&gt;" style="verticalAlign=top;align=left;overflow=fill;html=1;whiteSpace=wrap;fillColor=#ffe6cc;strokeColor=#d79b00;" parent="1" vertex="1">
          <mxGeometry x="1030" y="90" width="360" height="250" as="geometry" />
        </mxCell>
        <mxCell id="MSgrG4DnEws9bKUU-TWq-81" value="" style="edgeStyle=orthogonalEdgeStyle;rounded=0;orthogonalLoop=1;jettySize=auto;html=1;endArrow=none;startFill=0;" parent="1" source="MSgrG4DnEws9bKUU-TWq-71" target="MSgrG4DnEws9bKUU-TWq-46" edge="1">
          <mxGeometry relative="1" as="geometry" />
        </mxCell>
        <mxCell id="MSgrG4DnEws9bKUU-TWq-83" value="" style="edgeStyle=orthogonalEdgeStyle;rounded=0;orthogonalLoop=1;jettySize=auto;html=1;entryX=0.951;entryY=1.011;entryDx=0;entryDy=0;entryPerimeter=0;endArrow=none;startFill=0;" parent="1" source="MSgrG4DnEws9bKUU-TWq-71" target="MSgrG4DnEws9bKUU-TWq-47" edge="1">
          <mxGeometry relative="1" as="geometry">
            <mxPoint x="1340" y="570.0000000000005" as="targetPoint" />
            <Array as="points">
              <mxPoint x="1570" y="570" />
              <mxPoint x="1570" y="430" />
              <mxPoint x="1342" y="430" />
            </Array>
          </mxGeometry>
        </mxCell>
        <mxCell id="MSgrG4DnEws9bKUU-TWq-71" value="&lt;p style=&quot;margin:0px;margin-top:4px;text-align:center;&quot;&gt;&lt;span style=&quot;font-weight: 700; text-wrap-mode: nowrap;&quot;&gt;TrainingReport&lt;/span&gt;&lt;/p&gt;&lt;hr size=&quot;1&quot; style=&quot;border-style:solid;&quot;&gt;&lt;p style=&quot;margin: 0px 0px 0px 4px;&quot;&gt;&lt;span style=&quot;text-wrap-mode: nowrap;&quot;&gt;+String reportID&lt;/span&gt;&lt;br style=&quot;padding: 0px; margin: 0px; text-wrap-mode: nowrap;&quot;&gt;&lt;span style=&quot;text-wrap-mode: nowrap;&quot;&gt;+TrainingSession trainingSession&lt;/span&gt;&lt;br style=&quot;padding: 0px; margin: 0px; text-wrap-mode: nowrap;&quot;&gt;&lt;span style=&quot;text-wrap-mode: nowrap;&quot;&gt;+List&amp;lt;String&amp;gt; recruiterFeedback&lt;/span&gt;&lt;br style=&quot;padding: 0px; margin: 0px; text-wrap-mode: nowrap;&quot;&gt;&lt;span style=&quot;text-wrap-mode: nowrap;&quot;&gt;+Float completionRate&lt;/span&gt;&lt;br style=&quot;padding: 0px; margin: 0px; text-wrap-mode: nowrap;&quot;&gt;&lt;span style=&quot;text-wrap-mode: nowrap;&quot;&gt;+String performanceMetrics&lt;/span&gt;&lt;/p&gt;&lt;hr size=&quot;1&quot; style=&quot;border-style:solid;&quot;&gt;&lt;p style=&quot;margin: 0px 0px 0px 4px;&quot;&gt;&lt;span style=&quot;text-wrap-mode: nowrap;&quot;&gt;+generateReport() : : String&lt;/span&gt;&lt;br style=&quot;padding: 0px; margin: 0px; text-wrap-mode: nowrap;&quot;&gt;&lt;span style=&quot;text-wrap-mode: nowrap;&quot;&gt;+addPerformanceData(data: String) : : String&lt;/span&gt;&lt;br style=&quot;padding: 0px; margin: 0px; text-wrap-mode: nowrap;&quot;&gt;&lt;span style=&quot;text-wrap-mode: nowrap;&quot;&gt;+calculateCompletionRate() : : Float&lt;/span&gt;&lt;/p&gt;" style="verticalAlign=top;align=left;overflow=fill;html=1;whiteSpace=wrap;fillColor=#ffe6cc;strokeColor=#d79b00;" parent="1" vertex="1">
          <mxGeometry x="1600" y="480" width="360" height="180" as="geometry" />
        </mxCell>
        <mxCell id="MSgrG4DnEws9bKUU-TWq-72" value="&lt;p style=&quot;margin:0px;margin-top:4px;text-align:center;&quot;&gt;&lt;span style=&quot;font-weight: 700; text-wrap-mode: nowrap;&quot;&gt;TrainingProgram&lt;/span&gt;&lt;/p&gt;&lt;hr size=&quot;1&quot; style=&quot;border-style:solid;&quot;&gt;&lt;p style=&quot;margin: 0px 0px 0px 4px;&quot;&gt;&lt;span style=&quot;text-wrap-mode: nowrap;&quot;&gt;+String programID&lt;/span&gt;&lt;span style=&quot;text-wrap-mode: nowrap;&quot;&gt;&lt;/span&gt;&lt;/p&gt;&lt;p style=&quot;margin: 0px 0px 0px 4px;&quot;&gt;&lt;span style=&quot;text-wrap-mode: nowrap;&quot;&gt;+String title&lt;/span&gt;&lt;span style=&quot;text-wrap-mode: nowrap;&quot;&gt;&lt;/span&gt;&lt;/p&gt;&lt;p style=&quot;margin: 0px 0px 0px 4px;&quot;&gt;&lt;span style=&quot;text-wrap-mode: nowrap;&quot;&gt;+String objectives&lt;/span&gt;&lt;span style=&quot;text-wrap-mode: nowrap;&quot;&gt;&lt;/span&gt;&lt;/p&gt;&lt;p style=&quot;margin: 0px 0px 0px 4px;&quot;&gt;&lt;span style=&quot;text-wrap-mode: nowrap;&quot;&gt;+String targetAudience&lt;/span&gt;&lt;span style=&quot;text-wrap-mode: nowrap;&quot;&gt;&lt;/span&gt;&lt;/p&gt;&lt;p style=&quot;margin: 0px 0px 0px 4px;&quot;&gt;&lt;span style=&quot;text-wrap-mode: nowrap;&quot;&gt;+DateTime schedule&lt;/span&gt;&lt;span style=&quot;text-wrap-mode: nowrap;&quot;&gt;&lt;/span&gt;&lt;/p&gt;&lt;p style=&quot;margin: 0px 0px 0px 4px;&quot;&gt;&lt;span style=&quot;text-wrap-mode: nowrap;&quot;&gt;+String trainer&lt;/span&gt;&lt;span style=&quot;text-wrap-mode: nowrap;&quot;&gt;&lt;/span&gt;&lt;/p&gt;&lt;p style=&quot;margin: 0px 0px 0px 4px;&quot;&gt;&lt;span style=&quot;text-wrap-mode: nowrap;&quot;&gt;+List&amp;lt;String&amp;gt; materials&lt;/span&gt;&lt;/p&gt;&lt;hr size=&quot;1&quot; style=&quot;border-style:solid;&quot;&gt;&lt;p style=&quot;margin: 0px 0px 0px 4px;&quot;&gt;&lt;span style=&quot;text-wrap-mode: nowrap; background-color: transparent; color: light-dark(rgb(0, 0, 0), rgb(255, 255, 255));&quot;&gt;+createProgram() : String&lt;/span&gt;&lt;/p&gt;&lt;p style=&quot;margin: 0px 0px 0px 4px;&quot;&gt;&lt;span style=&quot;text-wrap-mode: nowrap;&quot;&gt;+updateProgramDetails(details: String) : String&lt;/span&gt;&lt;span style=&quot;text-wrap-mode: nowrap; background-color: transparent; color: light-dark(rgb(0, 0, 0), rgb(255, 255, 255));&quot;&gt;&lt;/span&gt;&lt;/p&gt;&lt;p style=&quot;margin: 0px 0px 0px 4px;&quot;&gt;&lt;span style=&quot;text-wrap-mode: nowrap;&quot;&gt;+scheduleProgram(schedule: DateTime) : String&lt;/span&gt;&lt;span style=&quot;text-wrap-mode: nowrap;&quot;&gt;&lt;/span&gt;&lt;/p&gt;" style="verticalAlign=top;align=left;overflow=fill;html=1;whiteSpace=wrap;fillColor=#ffe6cc;strokeColor=#d79b00;" parent="1" vertex="1">
          <mxGeometry x="1114" y="450" width="360" height="250" as="geometry" />
        </mxCell>
        <mxCell id="2leXaQ1zfdEcev7ULTfE-1" value="" style="endArrow=diamondThin;endFill=1;endSize=24;html=1;rounded=0;exitX=1;exitY=0.25;exitDx=0;exitDy=0;edgeStyle=orthogonalEdgeStyle;entryX=0.003;entryY=0.206;entryDx=0;entryDy=0;startArrow=diamondThin;startFill=1;entryPerimeter=0;" parent="1" source="uU_qOZDCl_3sr6Ekki7u-24" target="s6e1yUUkH1MG8MLtkfFg-6" edge="1">
          <mxGeometry width="160" relative="1" as="geometry">
            <mxPoint x="207.92000000000021" y="714.9700000000003" as="sourcePoint" />
            <mxPoint x="1029.9099999999996" y="170" as="targetPoint" />
            <Array as="points">
              <mxPoint x="190" y="-500" />
              <mxPoint x="310" y="-500" />
              <mxPoint x="310" y="229" />
            </Array>
          </mxGeometry>
        </mxCell>
        <mxCell id="uU_qOZDCl_3sr6Ekki7u-9" value="&lt;p style=&quot;margin:0px;margin-top:4px;text-align:center;&quot;&gt;&lt;span style=&quot;text-wrap-mode: nowrap;&quot;&gt;&lt;b&gt;Financial Recommendation&lt;/b&gt;&lt;/span&gt;&lt;/p&gt;&lt;hr size=&quot;1&quot; style=&quot;border-style:solid;&quot;&gt;&lt;p style=&quot;margin:0px;margin-left:4px;&quot;&gt;&lt;span style=&quot;text-wrap-mode: nowrap; background-color: transparent; color: light-dark(rgb(0, 0, 0), rgb(255, 255, 255));&quot;&gt;+recommendationDate: LocalDate&lt;/span&gt;&lt;/p&gt;&lt;p style=&quot;margin:0px;margin-left:4px;&quot;&gt;&lt;span style=&quot;text-wrap-mode: nowrap;&quot;&gt;+recommendationTittle: String&lt;/span&gt;&lt;/p&gt;&lt;p style=&quot;margin:0px;margin-left:4px;&quot;&gt;&lt;span style=&quot;text-wrap-mode: nowrap;&quot;&gt;+ecommendationDate:LocalDate&lt;/span&gt;&lt;/p&gt;&lt;p style=&quot;margin:0px;margin-left:4px;&quot;&gt;&lt;span style=&quot;text-wrap-mode: nowrap;&quot;&gt;+amount: Float&lt;/span&gt;&lt;/p&gt;&lt;p style=&quot;margin:0px;margin-left:4px;&quot;&gt;&lt;span style=&quot;text-wrap-mode: nowrap;&quot;&gt;+recommendationType: String&lt;/span&gt;&lt;/p&gt;&lt;p style=&quot;margin:0px;margin-left:4px;&quot;&gt;&lt;span style=&quot;text-wrap-mode: nowrap;&quot;&gt;&lt;br&gt;&lt;/span&gt;&lt;/p&gt;&lt;hr size=&quot;1&quot; style=&quot;border-style:solid;&quot;&gt;&lt;p style=&quot;margin:0px;margin-left:4px;&quot;&gt;+loadRecommendations(): void&lt;/p&gt;&lt;p style=&quot;margin:0px;margin-left:4px;&quot;&gt;+approveRecommendation(): void&lt;/p&gt;&lt;p style=&quot;margin:0px;margin-left:4px;&quot;&gt;+rejectRecommendation(): void&lt;/p&gt;" style="verticalAlign=top;align=left;overflow=fill;html=1;whiteSpace=wrap;fillColor=#fad9d5;strokeColor=#ae4132;" parent="1" vertex="1">
          <mxGeometry x="1010" y="-700" width="280" height="200" as="geometry" />
        </mxCell>
        <mxCell id="uU_qOZDCl_3sr6Ekki7u-10" value="&lt;p style=&quot;margin:0px;margin-top:4px;text-align:center;&quot;&gt;&lt;span style=&quot;text-wrap-mode: nowrap;&quot;&gt;&lt;b&gt;Prepare salaries&lt;/b&gt;&lt;/span&gt;&lt;/p&gt;&lt;hr size=&quot;1&quot; style=&quot;border-style:solid;&quot;&gt;&lt;p style=&quot;margin:0px;margin-left:4px;&quot;&gt;&lt;span style=&quot;text-wrap-mode: nowrap; background-color: transparent; color: light-dark(rgb(0, 0, 0), rgb(255, 255, 255));&quot;&gt;+staffId: int&lt;/span&gt;&lt;/p&gt;&lt;p style=&quot;margin:0px;margin-left:4px;&quot;&gt;&lt;span style=&quot;text-wrap-mode: nowrap;&quot;&gt;+staffName: String&lt;/span&gt;&lt;/p&gt;&lt;p style=&quot;margin:0px;margin-left:4px;&quot;&gt;&lt;span style=&quot;text-wrap-mode: nowrap;&quot;&gt;+bonus: int&lt;/span&gt;&lt;/p&gt;&lt;p style=&quot;margin:0px;margin-left:4px;&quot;&gt;&lt;span style=&quot;text-wrap-mode: nowrap;&quot;&gt;+deductions: int&lt;/span&gt;&lt;/p&gt;&lt;p style=&quot;margin:0px;margin-left:4px;&quot;&gt;&lt;span style=&quot;text-wrap-mode: nowrap;&quot;&gt;+salaryDate:LocalDate&lt;/span&gt;&lt;/p&gt;&lt;p style=&quot;margin:0px;margin-left:4px;&quot;&gt;&lt;span style=&quot;text-wrap-mode: nowrap;&quot;&gt;+basicSalary: Float&lt;/span&gt;&lt;/p&gt;&lt;p style=&quot;margin:0px;margin-left:4px;&quot;&gt;&lt;span style=&quot;text-wrap-mode: nowrap;&quot;&gt;+designation:String&lt;/span&gt;&lt;/p&gt;&lt;hr size=&quot;1&quot; style=&quot;border-style:solid;&quot;&gt;&lt;p style=&quot;margin:0px;margin-left:4px;&quot;&gt;&lt;span style=&quot;background-color: transparent; color: light-dark(rgb(0, 0, 0), rgb(255, 255, 255));&quot;&gt;+generateSalaryButtonClick(): void&lt;/span&gt;&lt;/p&gt;" style="verticalAlign=top;align=left;overflow=fill;html=1;whiteSpace=wrap;fillColor=#fad9d5;strokeColor=#ae4132;" parent="1" vertex="1">
          <mxGeometry x="1390" y="-890" width="280" height="180" as="geometry" />
        </mxCell>
        <mxCell id="uU_qOZDCl_3sr6Ekki7u-11" value="&lt;p style=&quot;margin:0px;margin-top:4px;text-align:center;&quot;&gt;&lt;span style=&quot;text-wrap-mode: nowrap;&quot;&gt;&lt;b&gt;Finance Records&lt;/b&gt;&lt;/span&gt;&lt;/p&gt;&lt;hr size=&quot;1&quot; style=&quot;border-style:solid;&quot;&gt;&lt;p style=&quot;margin:0px;margin-left:4px;&quot;&gt;-transactions: List&amp;lt;FinancialTransaction&amp;gt;&lt;/p&gt;&lt;p style=&quot;margin:0px;margin-left:4px;&quot;&gt;&lt;span style=&quot;text-wrap-mode: nowrap;&quot;&gt;&lt;br&gt;&lt;/span&gt;&lt;/p&gt;&lt;hr size=&quot;1&quot; style=&quot;border-style:solid;&quot;&gt;&lt;p style=&quot;margin:0px;margin-left:4px;&quot;&gt;+addTransaction(): void&lt;/p&gt;&lt;div&gt;+addRevenueTotal(): double&lt;/div&gt;&lt;div&gt;+addExpensesTotal(): double&lt;/div&gt;&lt;div&gt;+generateRevenueReport(): void&lt;/div&gt;&lt;div&gt;+generateExpensesReport(): void&lt;/div&gt;" style="verticalAlign=top;align=left;overflow=fill;html=1;whiteSpace=wrap;fillColor=#fad9d5;strokeColor=#ae4132;" parent="1" vertex="1">
          <mxGeometry x="1110" y="-450" width="271" height="160" as="geometry" />
        </mxCell>
        <mxCell id="uU_qOZDCl_3sr6Ekki7u-12" value="&lt;p style=&quot;margin:0px;margin-top:4px;text-align:center;&quot;&gt;&lt;span style=&quot;text-wrap-mode: nowrap;&quot;&gt;&lt;b&gt;Monitor Payment Status&lt;/b&gt;&lt;/span&gt;&lt;/p&gt;&lt;hr size=&quot;1&quot; style=&quot;border-style:solid;&quot;&gt;&lt;p style=&quot;margin:0px;margin-left:4px;&quot;&gt;&lt;span style=&quot;text-wrap-mode: nowrap;&quot;&gt;+paymentType: String&lt;/span&gt;&lt;/p&gt;&lt;p style=&quot;margin:0px;margin-left:4px;&quot;&gt;&lt;span style=&quot;text-wrap-mode: nowrap;&quot;&gt;+paymentAmount: int&lt;/span&gt;&lt;/p&gt;&lt;p style=&quot;margin:0px;margin-left:4px;&quot;&gt;&lt;span style=&quot;text-wrap-mode: nowrap;&quot;&gt;+Date:LocalDate&lt;/span&gt;&lt;/p&gt;&lt;p style=&quot;margin:0px;margin-left:4px;&quot;&gt;&lt;span style=&quot;text-wrap-mode: nowrap;&quot;&gt;+paymentStatus: Float&lt;/span&gt;&lt;/p&gt;&lt;hr size=&quot;1&quot; style=&quot;border-style:solid;&quot;&gt;&lt;p style=&quot;margin:0px;margin-left:4px;&quot;&gt;+viewRecordOA(): void&lt;/p&gt;&lt;p style=&quot;margin:0px;margin-left:4px;&quot;&gt;+MonitorPaymentStatusController(): void&lt;/p&gt;&lt;p style=&quot;margin:0px;margin-left:4px;&quot;&gt;+updatePaymentButtonOA(): void&lt;/p&gt;" style="verticalAlign=top;align=left;overflow=fill;html=1;whiteSpace=wrap;fillColor=#fad9d5;strokeColor=#ae4132;" parent="1" vertex="1">
          <mxGeometry x="1540" y="-440" width="280" height="160" as="geometry" />
        </mxCell>
        <mxCell id="uU_qOZDCl_3sr6Ekki7u-13" value="&lt;p style=&quot;margin:0px;margin-top:4px;text-align:center;&quot;&gt;&lt;span style=&quot;text-wrap-mode: nowrap;&quot;&gt;&lt;b&gt;Monthly And Yearly Cost Statement&lt;/b&gt;&lt;/span&gt;&lt;/p&gt;&lt;hr size=&quot;1&quot; style=&quot;border-style:solid;&quot;&gt;&lt;p style=&quot;margin:0px;margin-left:4px;&quot;&gt;&lt;span style=&quot;text-wrap-mode: nowrap;&quot;&gt;+month: String&lt;/span&gt;&lt;/p&gt;&lt;p style=&quot;margin:0px;margin-left:4px;&quot;&gt;&lt;span style=&quot;text-wrap-mode: nowrap;&quot;&gt;+year: int&lt;/span&gt;&lt;/p&gt;&lt;p style=&quot;margin:0px;margin-left:4px;&quot;&gt;&lt;span style=&quot;text-wrap-mode: nowrap;&quot;&gt;+costCategory: String&lt;/span&gt;&lt;/p&gt;&lt;p style=&quot;margin:0px;margin-left:4px;&quot;&gt;&lt;span style=&quot;text-wrap-mode: nowrap;&quot;&gt;+costAmount: Float&lt;/span&gt;&lt;/p&gt;&lt;hr size=&quot;1&quot; style=&quot;border-style:solid;&quot;&gt;&lt;p style=&quot;margin:0px;margin-left:4px;&quot;&gt;+StatementCost(): void&lt;/p&gt;&lt;p style=&quot;margin:0px;margin-left:4px;&quot;&gt;+handleAddCostStatement(): void&lt;/p&gt;&lt;p style=&quot;margin:0px;margin-left:4px;&quot;&gt;+viewOA(): void&lt;/p&gt;" style="verticalAlign=top;align=left;overflow=fill;html=1;whiteSpace=wrap;fillColor=#fad9d5;strokeColor=#ae4132;" parent="1" vertex="1">
          <mxGeometry x="1280" y="-167.5" width="280" height="160" as="geometry" />
        </mxCell>
        <mxCell id="uU_qOZDCl_3sr6Ekki7u-14" value="&lt;p style=&quot;margin:0px;margin-top:4px;text-align:center;&quot;&gt;&lt;span style=&quot;text-wrap-mode: nowrap;&quot;&gt;&lt;b&gt;Assign Recruiter&lt;/b&gt;&lt;/span&gt;&lt;/p&gt;&lt;hr size=&quot;1&quot; style=&quot;border-style:solid;&quot;&gt;&lt;p style=&quot;margin:0px;margin-left:4px;&quot;&gt;&lt;span style=&quot;text-wrap-mode: nowrap; background-color: transparent; color: light-dark(rgb(0, 0, 0), rgb(255, 255, 255));&quot;&gt;+job: String&lt;/span&gt;&lt;/p&gt;&lt;p style=&quot;margin:0px;margin-left:4px;&quot;&gt;&lt;span style=&quot;text-wrap-mode: nowrap;&quot;&gt;+recruiter: String&lt;/span&gt;&lt;/p&gt;&lt;p style=&quot;margin:0px;margin-left:4px;&quot;&gt;&lt;span style=&quot;text-wrap-mode: nowrap;&quot;&gt;+jobTittle: String&lt;/span&gt;&lt;/p&gt;&lt;p style=&quot;margin:0px;margin-left:4px;&quot;&gt;&lt;span style=&quot;text-wrap-mode: nowrap;&quot;&gt;+jobStatus:String&lt;/span&gt;&lt;/p&gt;&lt;hr size=&quot;1&quot; style=&quot;border-style:solid;&quot;&gt;&lt;p style=&quot;margin:0px;margin-left:4px;&quot;&gt;&lt;span style=&quot;background-color: transparent; color: light-dark(rgb(0, 0, 0), rgb(255, 255, 255));&quot;&gt;+&lt;/span&gt;&lt;span style=&quot;background-color: transparent;&quot;&gt;AssignRecruitersController()&lt;/span&gt;&lt;/p&gt;&lt;p style=&quot;margin:0px;margin-left:4px;&quot;&gt;&lt;span style=&quot;background-color: transparent;&quot;&gt;+&lt;/span&gt;&lt;span style=&quot;background-color: transparent;&quot;&gt;confirmAssignment(): void&lt;/span&gt;&lt;/p&gt;" style="verticalAlign=top;align=left;overflow=fill;html=1;whiteSpace=wrap;fillColor=#fad9d5;strokeColor=#ae4132;" parent="1" vertex="1">
          <mxGeometry x="650" y="-1040" width="280" height="140" as="geometry" />
        </mxCell>
        <mxCell id="uU_qOZDCl_3sr6Ekki7u-15" value="&lt;p style=&quot;margin:0px;margin-top:4px;text-align:center;&quot;&gt;&lt;span style=&quot;text-wrap-mode: nowrap;&quot;&gt;&lt;b&gt;Arrange Meetings&lt;/b&gt;&lt;/span&gt;&lt;/p&gt;&lt;hr size=&quot;1&quot; style=&quot;border-style:solid;&quot;&gt;&lt;p style=&quot;margin:0px;margin-left:4px;&quot;&gt;&lt;span style=&quot;text-wrap-mode: nowrap; background-color: transparent; color: light-dark(rgb(0, 0, 0), rgb(255, 255, 255));&quot;&gt;+meetingTittle: String&lt;/span&gt;&lt;/p&gt;&lt;p style=&quot;margin:0px;margin-left:4px;&quot;&gt;&lt;span style=&quot;text-wrap-mode: nowrap;&quot;&gt;+participants: String&lt;/span&gt;&lt;/p&gt;&lt;p style=&quot;margin:0px;margin-left:4px;&quot;&gt;&lt;span style=&quot;text-wrap-mode: nowrap;&quot;&gt;+mettingDate: LocalDate&lt;/span&gt;&lt;/p&gt;&lt;p style=&quot;margin:0px;margin-left:4px;&quot;&gt;&lt;span style=&quot;text-wrap-mode: nowrap;&quot;&gt;+meetingTime: LocalDate&lt;/span&gt;&lt;/p&gt;&lt;hr size=&quot;1&quot; style=&quot;border-style:solid;&quot;&gt;&lt;p style=&quot;margin:0px;margin-left:4px;&quot;&gt;&lt;span style=&quot;background-color: transparent; color: light-dark(rgb(0, 0, 0), rgb(255, 255, 255));&quot;&gt;+&lt;/span&gt;&lt;span style=&quot;background-color: transparent;&quot;&gt;ArrangeMeetingController()&lt;/span&gt;&lt;/p&gt;&lt;p style=&quot;margin:0px;margin-left:4px;&quot;&gt;&lt;span style=&quot;background-color: transparent;&quot;&gt;+&lt;/span&gt;&lt;span style=&quot;background-color: transparent;&quot;&gt;saveMeeting(): void&lt;/span&gt;&lt;/p&gt;" style="verticalAlign=top;align=left;overflow=fill;html=1;whiteSpace=wrap;fillColor=#fad9d5;strokeColor=#ae4132;" parent="1" vertex="1">
          <mxGeometry x="630" y="-1240" width="280" height="140" as="geometry" />
        </mxCell>
        <mxCell id="uU_qOZDCl_3sr6Ekki7u-18" value="&lt;p style=&quot;margin:0px;margin-top:4px;text-align:center;&quot;&gt;&lt;span style=&quot;text-wrap-mode: nowrap;&quot;&gt;&lt;b&gt;Manage Agency Budget&lt;/b&gt;&lt;/span&gt;&lt;/p&gt;&lt;hr size=&quot;1&quot; style=&quot;border-style:solid;&quot;&gt;&lt;p style=&quot;margin:0px;margin-left:4px;&quot;&gt;&lt;span style=&quot;text-wrap-mode: nowrap; background-color: transparent; color: light-dark(rgb(0, 0, 0), rgb(255, 255, 255));&quot;&gt;+recommendationDate: LocalDate&lt;/span&gt;&lt;/p&gt;&lt;p style=&quot;margin:0px;margin-left:4px;&quot;&gt;&lt;span style=&quot;text-wrap-mode: nowrap;&quot;&gt;+recommendationTittle: String&lt;/span&gt;&lt;/p&gt;&lt;p style=&quot;margin:0px;margin-left:4px;&quot;&gt;&lt;span style=&quot;text-wrap-mode: nowrap;&quot;&gt;+ecommendationDate:LocalDate&lt;/span&gt;&lt;/p&gt;&lt;p style=&quot;margin:0px;margin-left:4px;&quot;&gt;&lt;span style=&quot;text-wrap-mode: nowrap;&quot;&gt;+amount: Float&lt;/span&gt;&lt;/p&gt;&lt;p style=&quot;margin:0px;margin-left:4px;&quot;&gt;&lt;span style=&quot;text-wrap-mode: nowrap;&quot;&gt;+recommendationType: String&lt;/span&gt;&lt;/p&gt;&lt;p style=&quot;margin:0px;margin-left:4px;&quot;&gt;&lt;span style=&quot;text-wrap-mode: nowrap;&quot;&gt;&lt;br&gt;&lt;/span&gt;&lt;/p&gt;&lt;hr size=&quot;1&quot; style=&quot;border-style:solid;&quot;&gt;&lt;p style=&quot;margin:0px;margin-left:4px;&quot;&gt;+loadRecommendations(): void&lt;/p&gt;&lt;p style=&quot;margin:0px;margin-left:4px;&quot;&gt;+approveRecommendation(): void&lt;/p&gt;&lt;p style=&quot;margin:0px;margin-left:4px;&quot;&gt;+rejectRecommendation(): void&lt;/p&gt;" style="verticalAlign=top;align=left;overflow=fill;html=1;whiteSpace=wrap;fillColor=#fad9d5;strokeColor=#ae4132;" parent="1" vertex="1">
          <mxGeometry x="210" y="-930" width="280" height="200" as="geometry" />
        </mxCell>
        <mxCell id="uU_qOZDCl_3sr6Ekki7u-21" value="&lt;p style=&quot;margin:0px;margin-top:4px;text-align:center;&quot;&gt;&lt;span style=&quot;text-wrap-mode: nowrap;&quot;&gt;&lt;b&gt;View Candidate Details&lt;/b&gt;&lt;/span&gt;&lt;/p&gt;&lt;hr size=&quot;1&quot; style=&quot;border-style:solid;&quot;&gt;&lt;p style=&quot;margin:0px;margin-left:4px;&quot;&gt;&lt;span style=&quot;text-wrap-mode: nowrap; background-color: transparent; color: light-dark(rgb(0, 0, 0), rgb(255, 255, 255));&quot;&gt;+recommendationDate: LocalDate&lt;/span&gt;&lt;/p&gt;&lt;p style=&quot;margin:0px;margin-left:4px;&quot;&gt;&lt;span style=&quot;text-wrap-mode: nowrap;&quot;&gt;+recommendationTittle: String&lt;/span&gt;&lt;/p&gt;&lt;p style=&quot;margin:0px;margin-left:4px;&quot;&gt;&lt;span style=&quot;text-wrap-mode: nowrap;&quot;&gt;+ecommendationDate:LocalDate&lt;/span&gt;&lt;/p&gt;&lt;p style=&quot;margin:0px;margin-left:4px;&quot;&gt;&lt;span style=&quot;text-wrap-mode: nowrap;&quot;&gt;+amount: Float&lt;/span&gt;&lt;/p&gt;&lt;p style=&quot;margin:0px;margin-left:4px;&quot;&gt;&lt;span style=&quot;text-wrap-mode: nowrap;&quot;&gt;+recommendationType: String&lt;/span&gt;&lt;/p&gt;&lt;p style=&quot;margin:0px;margin-left:4px;&quot;&gt;&lt;span style=&quot;text-wrap-mode: nowrap;&quot;&gt;&lt;br&gt;&lt;/span&gt;&lt;/p&gt;&lt;hr size=&quot;1&quot; style=&quot;border-style:solid;&quot;&gt;&lt;p style=&quot;margin:0px;margin-left:4px;&quot;&gt;+ViewCandidateDetails()&lt;/p&gt;&lt;p style=&quot;margin:0px;margin-left:4px;&quot;&gt;+loadCandidateDetails(): void&lt;/p&gt;" style="verticalAlign=top;align=left;overflow=fill;html=1;whiteSpace=wrap;fillColor=#fad9d5;strokeColor=#ae4132;" parent="1" vertex="1">
          <mxGeometry x="-160" y="-1140" width="280" height="200" as="geometry" />
        </mxCell>
        <mxCell id="uU_qOZDCl_3sr6Ekki7u-22" value="&lt;p style=&quot;margin:0px;margin-top:4px;text-align:center;&quot;&gt;&lt;span style=&quot;text-wrap-mode: nowrap;&quot;&gt;&lt;b&gt;Payment And Transactions&lt;/b&gt;&lt;/span&gt;&lt;/p&gt;&lt;hr size=&quot;1&quot; style=&quot;border-style:solid;&quot;&gt;&lt;p style=&quot;margin:0px;margin-left:4px;&quot;&gt;&lt;span style=&quot;text-wrap-mode: nowrap; background-color: transparent; color: light-dark(rgb(0, 0, 0), rgb(255, 255, 255));&quot;&gt;+recommendationDate: LocalDate&lt;/span&gt;&lt;/p&gt;&lt;p style=&quot;margin:0px;margin-left:4px;&quot;&gt;&lt;span style=&quot;text-wrap-mode: nowrap;&quot;&gt;+recommendationTittle: String&lt;/span&gt;&lt;/p&gt;&lt;p style=&quot;margin:0px;margin-left:4px;&quot;&gt;&lt;span style=&quot;text-wrap-mode: nowrap;&quot;&gt;+ecommendationDate:LocalDate&lt;/span&gt;&lt;/p&gt;&lt;p style=&quot;margin:0px;margin-left:4px;&quot;&gt;&lt;span style=&quot;text-wrap-mode: nowrap;&quot;&gt;+amount: Float&lt;/span&gt;&lt;/p&gt;&lt;p style=&quot;margin:0px;margin-left:4px;&quot;&gt;&lt;span style=&quot;text-wrap-mode: nowrap;&quot;&gt;+recommendationType: String&lt;/span&gt;&lt;/p&gt;&lt;p style=&quot;margin:0px;margin-left:4px;&quot;&gt;&lt;span style=&quot;text-wrap-mode: nowrap;&quot;&gt;&lt;br&gt;&lt;/span&gt;&lt;/p&gt;&lt;hr size=&quot;1&quot; style=&quot;border-style:solid;&quot;&gt;&lt;p style=&quot;margin:0px;margin-left:4px;&quot;&gt;+loadRecommendations(): void&lt;/p&gt;&lt;p style=&quot;margin:0px;margin-left:4px;&quot;&gt;+approveRecommendation(): void&lt;/p&gt;&lt;p style=&quot;margin:0px;margin-left:4px;&quot;&gt;+rejectRecommendation(): void&lt;/p&gt;" style="verticalAlign=top;align=left;overflow=fill;html=1;whiteSpace=wrap;fillColor=#fad9d5;strokeColor=#ae4132;" parent="1" vertex="1">
          <mxGeometry x="190" y="-1200" width="280" height="200" as="geometry" />
        </mxCell>
        <mxCell id="uU_qOZDCl_3sr6Ekki7u-23" value="&lt;p style=&quot;margin:0px;margin-top:4px;text-align:center;&quot;&gt;&lt;span style=&quot;text-wrap-mode: nowrap;&quot;&gt;&lt;b&gt;Monthly Profit/Loss&lt;/b&gt;&lt;/span&gt;&lt;/p&gt;&lt;hr size=&quot;1&quot; style=&quot;border-style:solid;&quot;&gt;&lt;p style=&quot;margin:0px;margin-left:4px;&quot;&gt;&lt;span style=&quot;text-wrap-mode: nowrap;&quot;&gt;+month: LocalDate&lt;/span&gt;&lt;/p&gt;&lt;p style=&quot;margin:0px;margin-left:4px;&quot;&gt;&lt;span style=&quot;text-wrap-mode: nowrap;&quot;&gt;+totalExpenses: Float&lt;/span&gt;&lt;/p&gt;&lt;p style=&quot;margin:0px;margin-left:4px;&quot;&gt;&lt;span style=&quot;text-wrap-mode: nowrap;&quot;&gt;+totalRevenue: String&lt;/span&gt;&lt;/p&gt;&lt;p style=&quot;margin:0px;margin-left:4px;&quot;&gt;&lt;span style=&quot;text-wrap-mode: nowrap;&quot;&gt;+profitLoss: int&lt;/span&gt;&lt;/p&gt;&lt;hr size=&quot;1&quot; style=&quot;border-style:solid;&quot;&gt;&lt;p style=&quot;margin:0px;margin-left:4px;&quot;&gt;+ViewMonthlyProfitLossController()&lt;/p&gt;&lt;p style=&quot;margin:0px;margin-left:4px;&quot;&gt;+handleCalculateProfitLoss(): void&lt;/p&gt;&lt;p style=&quot;margin:0px;margin-left:4px;&quot;&gt;+handleShowPieChart(): void&lt;/p&gt;" style="verticalAlign=top;align=left;overflow=fill;html=1;whiteSpace=wrap;fillColor=#fad9d5;strokeColor=#ae4132;" parent="1" vertex="1">
          <mxGeometry x="1710" y="-230" width="280" height="160" as="geometry" />
        </mxCell>
        <mxCell id="uU_qOZDCl_3sr6Ekki7u-24" value="&lt;p style=&quot;margin:0px;margin-top:4px;text-align:center;&quot;&gt;&lt;b&gt;AGENCY DIRECTOR&lt;/b&gt;&lt;/p&gt;&lt;hr size=&quot;1&quot; style=&quot;border-style:solid;&quot;&gt;&lt;p style=&quot;margin: 0px 0px 0px 4px;&quot;&gt;+ accountantID: int { unique}&lt;br&gt;+ branchName: String&lt;br&gt;+ joiningDate: Date {final}&lt;br&gt;# salary: double&lt;br&gt;&lt;br&gt;&lt;/p&gt;&lt;hr size=&quot;1&quot; style=&quot;border-style:solid;&quot;&gt;&lt;p style=&quot;margin: 0px 0px 0px 4px;&quot;&gt;&lt;span style=&quot;text-wrap-mode: nowrap;&quot;&gt;+viewCandidateApplications() : void&lt;/span&gt;&lt;span style=&quot;text-wrap-mode: nowrap;&quot;&gt;&lt;/span&gt;&lt;/p&gt;&lt;p style=&quot;margin: 0px 0px 0px 4px;&quot;&gt;&lt;span style=&quot;text-wrap-mode: nowrap;&quot;&gt;+assignRecruiters() :&amp;nbsp; void&lt;/span&gt;&lt;/p&gt;" style="verticalAlign=top;align=left;overflow=fill;html=1;whiteSpace=wrap;fillColor=#fad9d5;strokeColor=#ae4132;" parent="1" vertex="1">
          <mxGeometry x="-120" y="-570" width="310" height="250" as="geometry" />
        </mxCell>
        <mxCell id="c4FVdULOMnDsU1F7ArN--1" value="1" style="endArrow=open;html=1;endSize=12;startArrow=diamondThin;startSize=14;startFill=1;edgeStyle=orthogonalEdgeStyle;align=left;verticalAlign=bottom;rounded=0;" parent="1" edge="1">
          <mxGeometry x="-1" y="3" relative="1" as="geometry">
            <mxPoint x="1270" y="-800.62" as="sourcePoint" />
            <mxPoint x="1390" y="-801" as="targetPoint" />
          </mxGeometry>
        </mxCell>
        <mxCell id="c4FVdULOMnDsU1F7ArN--3" value="" style="endArrow=open;endFill=1;endSize=12;html=1;rounded=0;entryX=0;entryY=0.5;entryDx=0;entryDy=0;edgeStyle=orthogonalEdgeStyle;" parent="1" target="uU_qOZDCl_3sr6Ekki7u-14" edge="1">
          <mxGeometry width="160" relative="1" as="geometry">
            <mxPoint x="240" y="-540" as="sourcePoint" />
            <mxPoint x="400" y="-540" as="targetPoint" />
            <Array as="points">
              <mxPoint x="446" y="-539" />
              <mxPoint x="446" y="-710" />
              <mxPoint x="600" y="-710" />
              <mxPoint x="600" y="-970" />
            </Array>
          </mxGeometry>
        </mxCell>
        <mxCell id="c4FVdULOMnDsU1F7ArN--4" value="" style="endArrow=diamondThin;endFill=1;endSize=24;html=1;rounded=0;exitX=0.25;exitY=0;exitDx=0;exitDy=0;entryX=0;entryY=0.75;entryDx=0;entryDy=0;edgeStyle=orthogonalEdgeStyle;" parent="1" source="uU_qOZDCl_3sr6Ekki7u-24" target="uU_qOZDCl_3sr6Ekki7u-15" edge="1">
          <mxGeometry width="160" relative="1" as="geometry">
            <mxPoint x="-50" y="-600.91" as="sourcePoint" />
            <mxPoint x="-20" y="-830" as="targetPoint" />
            <Array as="points">
              <mxPoint x="-43" y="-690" />
              <mxPoint x="140" y="-690" />
              <mxPoint x="140" y="-950" />
              <mxPoint x="580" y="-950" />
              <mxPoint x="580" y="-1135" />
            </Array>
          </mxGeometry>
        </mxCell>
        <mxCell id="c4FVdULOMnDsU1F7ArN--5" value="Text" style="edgeLabel;html=1;align=center;verticalAlign=middle;resizable=0;points=[];" parent="c4FVdULOMnDsU1F7ArN--4" vertex="1" connectable="0">
          <mxGeometry x="-0.5644" y="2" relative="1" as="geometry">
            <mxPoint as="offset" />
          </mxGeometry>
        </mxCell>
        <mxCell id="c4FVdULOMnDsU1F7ArN--6" value="" style="endArrow=block;startArrow=block;endFill=1;startFill=1;html=1;rounded=0;entryX=-0.007;entryY=0.124;entryDx=0;entryDy=0;entryPerimeter=0;" parent="1" target="uU_qOZDCl_3sr6Ekki7u-22" edge="1">
          <mxGeometry width="160" relative="1" as="geometry">
            <mxPoint x="-20" y="-570" as="sourcePoint" />
            <mxPoint x="-200" y="-690" as="targetPoint" />
            <Array as="points">
              <mxPoint x="-20" y="-890" />
              <mxPoint x="-200" y="-890" />
              <mxPoint x="-200" y="-1170" />
            </Array>
          </mxGeometry>
        </mxCell>
        <mxCell id="c4FVdULOMnDsU1F7ArN--7" value="" style="endArrow=diamondThin;endFill=1;endSize=24;html=1;rounded=0;entryX=0.75;entryY=1;entryDx=0;entryDy=0;" parent="1" target="uU_qOZDCl_3sr6Ekki7u-21" edge="1">
          <mxGeometry width="160" relative="1" as="geometry">
            <mxPoint x="40" y="-575" as="sourcePoint" />
            <mxPoint x="70" y="-760" as="targetPoint" />
          </mxGeometry>
        </mxCell>
        <mxCell id="c4FVdULOMnDsU1F7ArN--8" value="" style="endArrow=diamondThin;endFill=0;endSize=24;html=1;rounded=0;exitX=0.797;exitY=0.008;exitDx=0;exitDy=0;exitPerimeter=0;entryX=0.415;entryY=1;entryDx=0;entryDy=0;entryPerimeter=0;" parent="1" source="uU_qOZDCl_3sr6Ekki7u-24" target="uU_qOZDCl_3sr6Ekki7u-18" edge="1">
          <mxGeometry width="160" relative="1" as="geometry">
            <mxPoint x="270" y="-710" as="sourcePoint" />
            <mxPoint x="177" y="-840" as="targetPoint" />
            <Array as="points">
              <mxPoint x="130" y="-600" />
              <mxPoint x="326" y="-600" />
            </Array>
          </mxGeometry>
        </mxCell>
        <mxCell id="c4FVdULOMnDsU1F7ArN--9" value="" style="endArrow=diamondThin;endFill=1;endSize=24;html=1;rounded=0;entryX=0;entryY=0.75;entryDx=0;entryDy=0;" parent="1" target="uU_qOZDCl_3sr6Ekki7u-9" edge="1">
          <mxGeometry width="160" relative="1" as="geometry">
            <mxPoint x="780" y="-550.77" as="sourcePoint" />
            <mxPoint x="940" y="-550.77" as="targetPoint" />
          </mxGeometry>
        </mxCell>
        <mxCell id="c4FVdULOMnDsU1F7ArN--10" value="" style="endArrow=diamondThin;endFill=0;endSize=24;html=1;rounded=0;entryX=0.065;entryY=1.011;entryDx=0;entryDy=0;entryPerimeter=0;" parent="1" target="uU_qOZDCl_3sr6Ekki7u-10" edge="1">
          <mxGeometry width="160" relative="1" as="geometry">
            <mxPoint x="780" y="-420" as="sourcePoint" />
            <mxPoint x="1390" y="-700" as="targetPoint" />
            <Array as="points">
              <mxPoint x="820" y="-420" />
              <mxPoint x="820" y="-470" />
              <mxPoint x="1408" y="-470" />
              <mxPoint x="1410" y="-590" />
            </Array>
          </mxGeometry>
        </mxCell>
        <mxCell id="c4FVdULOMnDsU1F7ArN--11" value="" style="endArrow=diamondThin;endFill=0;endSize=24;html=1;rounded=0;exitX=0.796;exitY=0.994;exitDx=0;exitDy=0;exitPerimeter=0;" parent="1" source="MSgrG4DnEws9bKUU-TWq-11" edge="1">
          <mxGeometry width="160" relative="1" as="geometry">
            <mxPoint x="700" y="-320" as="sourcePoint" />
            <mxPoint x="1113" y="-350" as="targetPoint" />
            <Array as="points">
              <mxPoint x="717" y="-350" />
            </Array>
          </mxGeometry>
        </mxCell>
        <mxCell id="c4FVdULOMnDsU1F7ArN--12" value="" style="endArrow=block;startArrow=block;endFill=1;startFill=1;html=1;rounded=0;" parent="1" target="uU_qOZDCl_3sr6Ekki7u-13" edge="1">
          <mxGeometry width="160" relative="1" as="geometry">
            <mxPoint x="680" y="-397" as="sourcePoint" />
            <mxPoint x="1480" y="-250" as="targetPoint" />
            <Array as="points">
              <mxPoint x="680" y="-210" />
              <mxPoint x="980" y="-210" />
              <mxPoint x="980" y="-90" />
            </Array>
          </mxGeometry>
        </mxCell>
        <mxCell id="c4FVdULOMnDsU1F7ArN--13" value="" style="endArrow=diamondThin;endFill=1;endSize=24;html=1;rounded=0;exitX=0.907;exitY=1.024;exitDx=0;exitDy=0;exitPerimeter=0;" parent="1" source="MSgrG4DnEws9bKUU-TWq-11" target="uU_qOZDCl_3sr6Ekki7u-12" edge="1">
          <mxGeometry width="160" relative="1" as="geometry">
            <mxPoint x="910" y="-320" as="sourcePoint" />
            <mxPoint x="1070" y="-320" as="targetPoint" />
            <Array as="points">
              <mxPoint x="751" y="-250" />
              <mxPoint x="1480" y="-250" />
              <mxPoint x="1480" y="-360" />
            </Array>
          </mxGeometry>
        </mxCell>
        <mxCell id="c4FVdULOMnDsU1F7ArN--14" value="" style="endArrow=diamondThin;endFill=1;endSize=24;html=1;rounded=0;entryX=1;entryY=0.5;entryDx=0;entryDy=0;exitX=-0.018;exitY=0.259;exitDx=0;exitDy=0;exitPerimeter=0;" parent="1" source="uU_qOZDCl_3sr6Ekki7u-23" target="MSgrG4DnEws9bKUU-TWq-11" edge="1">
          <mxGeometry width="160" relative="1" as="geometry">
            <mxPoint x="1040" y="-360" as="sourcePoint" />
            <mxPoint x="1200" y="-360" as="targetPoint" />
            <Array as="points">
              <mxPoint x="1080" y="-190" />
              <mxPoint x="1080" y="-280" />
              <mxPoint x="920" y="-280" />
              <mxPoint x="920" y="-525" />
            </Array>
          </mxGeometry>
        </mxCell>
        <mxCell id="c4FVdULOMnDsU1F7ArN--15" value="" style="endArrow=diamondThin;endFill=0;endSize=24;html=1;rounded=0;exitX=0.685;exitY=0;exitDx=0;exitDy=0;exitPerimeter=0;entryX=0.174;entryY=1.025;entryDx=0;entryDy=0;entryPerimeter=0;" parent="1" source="MSgrG4DnEws9bKUU-TWq-11" target="MSgrG4DnEws9bKUU-TWq-9" edge="1">
          <mxGeometry width="160" relative="1" as="geometry">
            <mxPoint x="1190" y="-420" as="sourcePoint" />
            <mxPoint x="1440" y="-480" as="targetPoint" />
            <Array as="points">
              <mxPoint x="680" y="-720" />
              <mxPoint x="820" y="-720" />
              <mxPoint x="820" y="-580" />
              <mxPoint x="960" y="-580" />
              <mxPoint x="960" y="-380" />
              <mxPoint x="1040" y="-380" />
              <mxPoint x="1040" y="-130" />
              <mxPoint x="1220" y="-130" />
              <mxPoint x="1220" y="-220" />
              <mxPoint x="1440" y="-220" />
              <mxPoint x="1440" y="-420" />
              <mxPoint x="1480" y="-420" />
            </Array>
          </mxGeometry>
        </mxCell>
        <mxCell id="Rw2f7XkxjXLXI4ShAcJu-1" value="" style="endArrow=open;endFill=1;endSize=12;html=1;rounded=0;entryX=0;entryY=0.307;entryDx=0;entryDy=0;entryPerimeter=0;exitX=1.028;exitY=0.346;exitDx=0;exitDy=0;exitPerimeter=0;" edge="1" parent="1" source="iU-2FlDDVKVuJZLUvYfY-16" target="s6e1yUUkH1MG8MLtkfFg-7">
          <mxGeometry width="160" relative="1" as="geometry">
            <mxPoint x="-430" y="310" as="sourcePoint" />
            <mxPoint x="-270" y="310" as="targetPoint" />
          </mxGeometry>
        </mxCell>
        <mxCell id="Rw2f7XkxjXLXI4ShAcJu-3" value="" style="endArrow=open;endFill=1;endSize=12;html=1;rounded=0;entryX=0;entryY=0.413;entryDx=0;entryDy=0;entryPerimeter=0;exitX=-0.016;exitY=0.352;exitDx=0;exitDy=0;exitPerimeter=0;edgeStyle=orthogonalEdgeStyle;" edge="1" parent="1" source="s6e1yUUkH1MG8MLtkfFg-44" target="s6e1yUUkH1MG8MLtkfFg-7">
          <mxGeometry width="160" relative="1" as="geometry">
            <mxPoint x="-220" y="330" as="sourcePoint" />
            <mxPoint x="-60" y="330" as="targetPoint" />
            <Array as="points">
              <mxPoint x="-150" y="463" />
              <mxPoint x="-150" y="190" />
            </Array>
          </mxGeometry>
        </mxCell>
        <mxCell id="Rw2f7XkxjXLXI4ShAcJu-4" value="" style="endArrow=open;endFill=1;endSize=12;html=1;rounded=0;entryX=1.022;entryY=0.439;entryDx=0;entryDy=0;entryPerimeter=0;exitX=0.003;exitY=0.397;exitDx=0;exitDy=0;exitPerimeter=0;edgeStyle=orthogonalEdgeStyle;" edge="1" parent="1" source="s6e1yUUkH1MG8MLtkfFg-42" target="s6e1yUUkH1MG8MLtkfFg-7">
          <mxGeometry width="160" relative="1" as="geometry">
            <mxPoint x="120" y="80" as="sourcePoint" />
            <mxPoint x="280" y="80" as="targetPoint" />
          </mxGeometry>
        </mxCell>
        <mxCell id="Rw2f7XkxjXLXI4ShAcJu-5" value="" style="endArrow=open;endFill=1;endSize=12;html=1;rounded=0;exitX=1.034;exitY=0.32;exitDx=0;exitDy=0;exitPerimeter=0;entryX=-0.003;entryY=0.204;entryDx=0;entryDy=0;entryPerimeter=0;edgeStyle=orthogonalEdgeStyle;" edge="1" parent="1" source="s6e1yUUkH1MG8MLtkfFg-38" target="s6e1yUUkH1MG8MLtkfFg-7">
          <mxGeometry width="160" relative="1" as="geometry">
            <mxPoint x="-210" y="100" as="sourcePoint" />
            <mxPoint x="-50" y="100" as="targetPoint" />
          </mxGeometry>
        </mxCell>
        <mxCell id="Rw2f7XkxjXLXI4ShAcJu-6" value="" style="endArrow=open;endFill=1;endSize=12;html=1;rounded=0;exitX=1.022;exitY=0.336;exitDx=0;exitDy=0;exitPerimeter=0;entryX=-0.009;entryY=0.583;entryDx=0;entryDy=0;entryPerimeter=0;edgeStyle=orthogonalEdgeStyle;" edge="1" parent="1" source="s6e1yUUkH1MG8MLtkfFg-43" target="s6e1yUUkH1MG8MLtkfFg-7">
          <mxGeometry width="160" relative="1" as="geometry">
            <mxPoint x="-170" y="340" as="sourcePoint" />
            <mxPoint x="-10" y="340" as="targetPoint" />
          </mxGeometry>
        </mxCell>
        <mxCell id="Rw2f7XkxjXLXI4ShAcJu-7" value="" style="endArrow=diamondThin;endFill=1;endSize=24;html=1;rounded=0;exitX=1.008;exitY=0.361;exitDx=0;exitDy=0;exitPerimeter=0;edgeStyle=orthogonalEdgeStyle;entryX=-0.012;entryY=0.577;entryDx=0;entryDy=0;entryPerimeter=0;" edge="1" parent="1" source="s6e1yUUkH1MG8MLtkfFg-39" target="s6e1yUUkH1MG8MLtkfFg-7">
          <mxGeometry width="160" relative="1" as="geometry">
            <mxPoint x="-430" y="480" as="sourcePoint" />
            <mxPoint x="40" y="340" as="targetPoint" />
            <Array as="points">
              <mxPoint x="-468" y="300" />
              <mxPoint x="-180" y="300" />
              <mxPoint x="-180" y="221" />
            </Array>
          </mxGeometry>
        </mxCell>
        <mxCell id="Rw2f7XkxjXLXI4ShAcJu-9" value="" style="endArrow=diamondThin;endFill=1;endSize=24;html=1;rounded=0;entryX=-0.013;entryY=0.611;entryDx=0;entryDy=0;entryPerimeter=0;exitX=0.003;exitY=0.408;exitDx=0;exitDy=0;exitPerimeter=0;edgeStyle=orthogonalEdgeStyle;" edge="1" parent="1" source="s6e1yUUkH1MG8MLtkfFg-41" target="s6e1yUUkH1MG8MLtkfFg-39">
          <mxGeometry width="160" relative="1" as="geometry">
            <mxPoint x="-720" y="510" as="sourcePoint" />
            <mxPoint x="-680" y="570" as="targetPoint" />
          </mxGeometry>
        </mxCell>
        <mxCell id="Rw2f7XkxjXLXI4ShAcJu-10" value="" style="endArrow=open;endFill=1;endSize=12;html=1;rounded=0;entryX=-0.019;entryY=0.339;entryDx=0;entryDy=0;entryPerimeter=0;exitX=1.033;exitY=0.375;exitDx=0;exitDy=0;exitPerimeter=0;edgeStyle=orthogonalEdgeStyle;" edge="1" parent="1" source="s6e1yUUkH1MG8MLtkfFg-27" target="s6e1yUUkH1MG8MLtkfFg-6">
          <mxGeometry width="160" relative="1" as="geometry">
            <mxPoint x="410" y="630" as="sourcePoint" />
            <mxPoint x="570" y="630" as="targetPoint" />
          </mxGeometry>
        </mxCell>
        <mxCell id="Rw2f7XkxjXLXI4ShAcJu-11" value="" style="endArrow=open;endFill=1;endSize=12;html=1;rounded=0;exitX=1.021;exitY=0.385;exitDx=0;exitDy=0;exitPerimeter=0;entryX=0;entryY=0.417;entryDx=0;entryDy=0;entryPerimeter=0;edgeStyle=orthogonalEdgeStyle;" edge="1" parent="1" source="s6e1yUUkH1MG8MLtkfFg-28" target="s6e1yUUkH1MG8MLtkfFg-6">
          <mxGeometry width="160" relative="1" as="geometry">
            <mxPoint x="390" y="610" as="sourcePoint" />
            <mxPoint x="550" y="610" as="targetPoint" />
            <Array as="points">
              <mxPoint x="430" y="985" />
              <mxPoint x="430" y="280" />
            </Array>
          </mxGeometry>
        </mxCell>
        <mxCell id="Rw2f7XkxjXLXI4ShAcJu-12" value="" style="endArrow=open;endSize=12;dashed=1;html=1;rounded=0;entryX=1.018;entryY=0.405;entryDx=0;entryDy=0;entryPerimeter=0;exitX=0.033;exitY=0.385;exitDx=0;exitDy=0;exitPerimeter=0;edgeStyle=orthogonalEdgeStyle;" edge="1" parent="1" source="s6e1yUUkH1MG8MLtkfFg-28" target="s6e1yUUkH1MG8MLtkfFg-39">
          <mxGeometry x="-0.0008" width="160" relative="1" as="geometry">
            <mxPoint x="-40" y="860" as="sourcePoint" />
            <mxPoint x="120" y="860" as="targetPoint" />
            <Array as="points">
              <mxPoint x="100" y="985" />
              <mxPoint x="100" y="895" />
              <mxPoint x="-390" y="895" />
              <mxPoint x="-390" y="312" />
            </Array>
            <mxPoint as="offset" />
          </mxGeometry>
        </mxCell>
        <mxCell id="Rw2f7XkxjXLXI4ShAcJu-13" value="" style="endArrow=open;endFill=1;endSize=12;html=1;rounded=0;entryX=1.003;entryY=0.606;entryDx=0;entryDy=0;entryPerimeter=0;exitX=0;exitY=0.378;exitDx=0;exitDy=0;exitPerimeter=0;" edge="1" parent="1" source="s6e1yUUkH1MG8MLtkfFg-31" target="s6e1yUUkH1MG8MLtkfFg-27">
          <mxGeometry width="160" relative="1" as="geometry">
            <mxPoint x="490" y="590" as="sourcePoint" />
            <mxPoint x="650" y="590" as="targetPoint" />
          </mxGeometry>
        </mxCell>
        <mxCell id="Rw2f7XkxjXLXI4ShAcJu-14" value="" style="endArrow=open;endFill=1;endSize=12;html=1;rounded=0;exitX=1.006;exitY=0.361;exitDx=0;exitDy=0;exitPerimeter=0;entryX=-0.016;entryY=0.546;entryDx=0;entryDy=0;entryPerimeter=0;edgeStyle=orthogonalEdgeStyle;" edge="1" parent="1" source="s6e1yUUkH1MG8MLtkfFg-36" target="s6e1yUUkH1MG8MLtkfFg-6">
          <mxGeometry width="160" relative="1" as="geometry">
            <mxPoint x="310" y="640" as="sourcePoint" />
            <mxPoint x="470" y="640" as="targetPoint" />
            <Array as="points">
              <mxPoint x="420" y="713" />
              <mxPoint x="420" y="311" />
            </Array>
          </mxGeometry>
        </mxCell>
        <mxCell id="Rw2f7XkxjXLXI4ShAcJu-15" value="" style="endArrow=open;endSize=12;dashed=1;html=1;rounded=0;entryX=1.003;entryY=0.422;entryDx=0;entryDy=0;entryPerimeter=0;exitX=-0.015;exitY=0.38;exitDx=0;exitDy=0;exitPerimeter=0;edgeStyle=orthogonalEdgeStyle;" edge="1" parent="1" source="s6e1yUUkH1MG8MLtkfFg-36" target="s6e1yUUkH1MG8MLtkfFg-44">
          <mxGeometry width="160" relative="1" as="geometry">
            <mxPoint x="-200" y="790" as="sourcePoint" />
            <mxPoint x="-40" y="790" as="targetPoint" />
          </mxGeometry>
        </mxCell>
        <mxCell id="Rw2f7XkxjXLXI4ShAcJu-16" value="" style="endArrow=open;endFill=1;endSize=12;html=1;rounded=0;entryX=1.001;entryY=0.441;entryDx=0;entryDy=0;entryPerimeter=0;exitX=0.017;exitY=0.391;exitDx=0;exitDy=0;exitPerimeter=0;edgeStyle=orthogonalEdgeStyle;" edge="1" parent="1" source="s6e1yUUkH1MG8MLtkfFg-35" target="s6e1yUUkH1MG8MLtkfFg-27">
          <mxGeometry width="160" relative="1" as="geometry">
            <mxPoint x="250" y="890" as="sourcePoint" />
            <mxPoint x="410" y="890" as="targetPoint" />
          </mxGeometry>
        </mxCell>
        <mxCell id="Rw2f7XkxjXLXI4ShAcJu-17" value="" style="endArrow=open;endFill=1;endSize=12;html=1;rounded=0;entryX=0.986;entryY=0.396;entryDx=0;entryDy=0;entryPerimeter=0;exitX=0.996;exitY=0.366;exitDx=0;exitDy=0;exitPerimeter=0;edgeStyle=orthogonalEdgeStyle;" edge="1" parent="1" source="s6e1yUUkH1MG8MLtkfFg-35" target="s6e1yUUkH1MG8MLtkfFg-30">
          <mxGeometry width="160" relative="1" as="geometry">
            <mxPoint x="770" y="920" as="sourcePoint" />
            <mxPoint x="930" y="920" as="targetPoint" />
            <Array as="points">
              <mxPoint x="680" y="934" />
              <mxPoint x="680" y="747" />
            </Array>
          </mxGeometry>
        </mxCell>
        <mxCell id="Rw2f7XkxjXLXI4ShAcJu-19" value="" style="endArrow=open;endFill=1;endSize=12;html=1;rounded=0;exitX=0.996;exitY=0.362;exitDx=0;exitDy=0;exitPerimeter=0;entryX=-0.019;entryY=0.151;entryDx=0;entryDy=0;entryPerimeter=0;edgeStyle=orthogonalEdgeStyle;" edge="1" parent="1" source="s6e1yUUkH1MG8MLtkfFg-29" target="s6e1yUUkH1MG8MLtkfFg-28">
          <mxGeometry width="160" relative="1" as="geometry">
            <mxPoint x="160" y="870" as="sourcePoint" />
            <mxPoint x="320" y="870" as="targetPoint" />
            <Array as="points">
              <mxPoint x="80" y="727" />
              <mxPoint x="80" y="810" />
              <mxPoint x="187" y="810" />
            </Array>
          </mxGeometry>
        </mxCell>
        <mxCell id="Rw2f7XkxjXLXI4ShAcJu-20" value="" style="endArrow=open;endFill=1;endSize=12;html=1;rounded=0;exitX=1.015;exitY=0.331;exitDx=0;exitDy=0;exitPerimeter=0;entryX=0.994;entryY=0.189;entryDx=0;entryDy=0;entryPerimeter=0;edgeStyle=orthogonalEdgeStyle;" edge="1" parent="1" source="s6e1yUUkH1MG8MLtkfFg-31" target="s6e1yUUkH1MG8MLtkfFg-6">
          <mxGeometry width="160" relative="1" as="geometry">
            <mxPoint x="940" y="500" as="sourcePoint" />
            <mxPoint x="1100" y="500" as="targetPoint" />
            <Array as="points">
              <mxPoint x="960" y="518" />
              <mxPoint x="960" y="225" />
            </Array>
          </mxGeometry>
        </mxCell>
        <mxCell id="Rw2f7XkxjXLXI4ShAcJu-22" value="" style="endArrow=open;endSize=12;dashed=1;html=1;rounded=0;exitX=0.017;exitY=0.378;exitDx=0;exitDy=0;exitPerimeter=0;entryX=0.031;entryY=0.38;entryDx=0;entryDy=0;entryPerimeter=0;edgeStyle=orthogonalEdgeStyle;" edge="1" parent="1" source="s6e1yUUkH1MG8MLtkfFg-42" target="s6e1yUUkH1MG8MLtkfFg-34">
          <mxGeometry width="160" relative="1" as="geometry">
            <mxPoint x="160" y="280" as="sourcePoint" />
            <mxPoint x="320" y="280" as="targetPoint" />
            <Array as="points">
              <mxPoint x="43" y="100" />
              <mxPoint x="370" y="100" />
              <mxPoint x="370" y="588" />
            </Array>
          </mxGeometry>
        </mxCell>
        <mxCell id="Rw2f7XkxjXLXI4ShAcJu-23" value="" style="endArrow=open;endSize=12;dashed=1;html=1;rounded=0;entryX=0.013;entryY=0.379;entryDx=0;entryDy=0;entryPerimeter=0;exitX=1.023;exitY=0.378;exitDx=0;exitDy=0;exitPerimeter=0;edgeStyle=orthogonalEdgeStyle;" edge="1" parent="1" source="s6e1yUUkH1MG8MLtkfFg-41" target="s6e1yUUkH1MG8MLtkfFg-29">
          <mxGeometry width="160" relative="1" as="geometry">
            <mxPoint x="-690" y="840" as="sourcePoint" />
            <mxPoint x="-530" y="840" as="targetPoint" />
            <Array as="points">
              <mxPoint x="-481" y="620" />
              <mxPoint x="-150" y="620" />
              <mxPoint x="-150" y="729" />
            </Array>
          </mxGeometry>
        </mxCell>
        <mxCell id="Rw2f7XkxjXLXI4ShAcJu-27" value="" style="endArrow=diamondThin;endFill=1;endSize=24;html=1;rounded=0;entryX=0;entryY=0.386;entryDx=0;entryDy=0;entryPerimeter=0;exitX=1.008;exitY=0.356;exitDx=0;exitDy=0;exitPerimeter=0;" edge="1" parent="1" source="s6e1yUUkH1MG8MLtkfFg-40" target="s6e1yUUkH1MG8MLtkfFg-39">
          <mxGeometry width="160" relative="1" as="geometry">
            <mxPoint x="-880" y="550" as="sourcePoint" />
            <mxPoint x="-720" y="550" as="targetPoint" />
          </mxGeometry>
        </mxCell>
        <mxCell id="Rw2f7XkxjXLXI4ShAcJu-28" value="" style="endArrow=open;endFill=1;endSize=12;html=1;rounded=0;entryX=0.031;entryY=0.644;entryDx=0;entryDy=0;entryPerimeter=0;exitX=-0.025;exitY=0.363;exitDx=0;exitDy=0;exitPerimeter=0;edgeStyle=orthogonalEdgeStyle;" edge="1" parent="1" source="s6e1yUUkH1MG8MLtkfFg-43" target="s6e1yUUkH1MG8MLtkfFg-30">
          <mxGeometry width="160" relative="1" as="geometry">
            <mxPoint x="-400" y="800" as="sourcePoint" />
            <mxPoint x="-240" y="800" as="targetPoint" />
            <Array as="points">
              <mxPoint x="-370" y="363" />
              <mxPoint x="-370" y="850" />
              <mxPoint x="440" y="850" />
              <mxPoint x="440" y="777" />
            </Array>
          </mxGeometry>
        </mxCell>
        <mxCell id="Rw2f7XkxjXLXI4ShAcJu-29" value="" style="endArrow=block;startArrow=block;endFill=1;startFill=1;html=1;rounded=0;exitX=0.996;exitY=0.595;exitDx=0;exitDy=0;exitPerimeter=0;entryX=-0.019;entryY=0.3;entryDx=0;entryDy=0;entryPerimeter=0;edgeStyle=orthogonalEdgeStyle;" edge="1" parent="1" source="s6e1yUUkH1MG8MLtkfFg-7" target="s6e1yUUkH1MG8MLtkfFg-6">
          <mxGeometry width="160" relative="1" as="geometry">
            <mxPoint x="190" y="280" as="sourcePoint" />
            <mxPoint x="350" y="280" as="targetPoint" />
          </mxGeometry>
        </mxCell>
      </root>
    </mxGraphModel>
  </diagram>
</mxfile>
